<svg style="position: absolute; width: 0; height: 0; overflow: hidden;" version="1.1" xmlns="http://www.w3.org/2000/svg" xmlns:xlink="http://www.w3.org/1999/xlink">
<defs>
<symbol id="pd-switch2" viewBox="0 0 16 16">
<title>switch2</title>
<path d="M7.75 15.531c-3.452 0-6.25-2.799-6.25-6.25 0-2.658 1.662-4.922 4-5.825v2.224c-1.2 0.752-2 2.081-2 3.601 0 2.347 1.903 4.25 4.25 4.25s4.25-1.903 4.25-4.25c0-1.298-0.583-2.457-1.5-3.237v-2.368c2.072 1.018 3.5 3.142 3.5 5.606 0 3.451-2.799 6.25-6.25 6.25zM8 8.531c-0.552 0-1-0.448-1-1v-5.562c0-0.552 0.448-1 1-1s1 0.448 1 1v5.563c0 0.552-0.448 1-1 1z"></path>
</symbol>
<symbol id="pd-heart3" viewBox="0 0 16 16">
<title>heart3</title>
<path d="M12 6.489c-1.933 0-3.5 1.579-3.5 3.527 0 1.11 0.51 2.098 1.305 2.745-1.028 0.762-1.805 1.244-1.805 1.244s-7-4.326-7-7.811c0-2.1 1.292-4.199 3.75-4.199 2.25 0 3.25 2.148 3.25 2.148s0.875-2.148 3.25-2.148 3.708 2.057 3.708 4.199c0 0.479-0.136 0.971-0.358 1.466-0.64-0.718-1.567-1.172-2.6-1.172zM12 6.992c1.656 0 3 1.353 3 3.023s-1.344 3.024-3 3.024c-1.657 0-3-1.354-3-3.024s1.343-3.024 3-3.024zM10.5 10.52h3v-1.008h-3v1.008z"></path>
</symbol>
<symbol id="pd-heart2" viewBox="0 0 16 16">
<title>heart2</title>
<path d="M12 6.489c-1.933 0-3.5 1.579-3.5 3.527 0 1.11 0.51 2.098 1.305 2.745-1.028 0.762-1.805 1.244-1.805 1.244s-7-4.326-7-7.811c0-2.1 1.292-4.199 3.75-4.199 2.25 0 3.25 2.148 3.25 2.148s0.875-2.148 3.25-2.148 3.708 2.057 3.708 4.199c0 0.479-0.136 0.971-0.358 1.466-0.64-0.718-1.567-1.172-2.6-1.172zM12 6.992c1.656 0 3 1.353 3 3.023s-1.344 3.024-3 3.024c-1.657 0-3-1.354-3-3.024s1.343-3.024 3-3.024zM10.5 10.52h1v1.008h1v-1.008h1v-1.008h-1v-1.008h-1v1.008h-1v1.008z"></path>
</symbol>
<symbol id="pd-pictures2" viewBox="0 0 16 16">
<title>pictures2</title>
<path d="M14 4v8c0 0.552-0.448 1-1 1h-10.5c0 0.552 0.448 1 1 1h10.5c0.552 0 1-0.448 1-1v-8c0-0.552-0.448-1-1-1zM13.5 11.5v-8c0-0.552-0.448-1-1-1h-10.5c-0.552 0-1 0.448-1 1v8c0 0.552 0.448 1 1 1h10.5c0.552 0 1-0.448 1-1zM2 3.5h10.5v8h-10.5v-8zM7.814 8.655l-1.494-1.591-1.494 2.552-1.121-1.171-1.214 2.564h9.527l-2.149-5.622-2.055 3.268zM4 7c0.552 0 1-0.448 1-1s-0.448-1-1-1-1 0.448-1 1 0.448 1 1 1z"></path>
</symbol>
<symbol id="pd-collapse" viewBox="0 0 16 16">
<title>collapse</title>
<path d="M5.747 4.378l-1.727-1.726-1.333 1.333 1.727 1.727-1.295 1.295 3.899 0.002-0.008-3.892-1.263 1.262zM11.586 5.711l1.727-1.726-1.332-1.333-1.727 1.727-1.262-1.263-0.008 3.892 3.899-0.002-1.295-1.295zM4.414 10.289l-1.727 1.726 1.332 1.332 1.727-1.726 1.263 1.262 0.008-3.892-3.898 0.002 1.294 1.295zM12.881 8.994l-3.899-0.002 0.008 3.892 1.262-1.262 1.727 1.726 1.332-1.332-1.727-1.726 1.295-1.295z"></path>
</symbol>
<symbol id="pd-expand" viewBox="0 0 16 16">
<title>expand</title>
<path d="M6.908 2.994l-3.893 0.023 0.002 3.867 1.295-1.296 1.727 1.727 1.333-1.332-1.726-1.727 1.263-1.263zM6.040 8.675l-1.727 1.727-1.295-1.296-0.002 3.899 3.893-0.009-1.263-1.262 1.727-1.726-1.333-1.333zM9.961 7.316l1.726-1.727 1.295 1.296 0.002-3.868-3.893-0.023 1.263 1.263-1.727 1.727 1.333 1.332zM11.688 10.402l-1.726-1.727-1.333 1.333 1.727 1.726-1.263 1.262 3.893 0.009-0.002-3.899-1.295 1.296z"></path>
</symbol>
<symbol id="pd-heart" viewBox="0 0 16 16">
<title>heart</title>
<path d="M8.021 4.173c0 0-1-2.131-3.25-2.131-2.458 0-3.75 2.083-3.75 4.166 0 3.458 7 7.75 7 7.75s6.958-4.25 6.958-7.75c0-2.125-1.333-4.167-3.708-4.167s-3.25 2.131-3.25 2.131z"></path>
</symbol>
<symbol id="pd-music" viewBox="0 0 16 16">
<title>music</title>
<path d="M13.474 1.769c-2.681 0.053-5.787 0.517-8.469 1.394-0.002-0.018 0.010 7.964 0.010 7.964-0.484-0.11-1.031-0.046-1.606 0.216-1.066 0.485-1.647 1.464-1.298 2.188 0.349 0.725 1.496 0.919 2.562 0.434 0.974-0.522 1.288-0.995 1.32-1.678l0.024-6.916c2.113-0.622 4.347-0.99 6.462-1.104v6.183c-0.489-0.12-1.138-0.059-1.726 0.207-1.066 0.486-1.648 1.465-1.299 2.188 0.349 0.725 1.496 0.918 2.563 0.434 0.758-0.345 1.364-0.94 1.472-1.514 0.001-0.001-0.025-10.008-0.015-9.994z"></path>
</symbol>
<symbol id="pd-envelope2" viewBox="0 0 16 16">
<title>envelope2</title>
<path d="M10.069 9.467l4.894-3.999-6.963-4.917-6.945 4.917 4.912 4.016 4.103-0.017zM6.18 9.968l-4.639 5.481h12.938l-4.681-5.45-3.617-0.031zM10.352 9.902l4.646 5.542v-9.476l-4.646 3.934zM1.002 5.968v9.476l4.646-5.542-4.646-3.934z"></path>
</symbol>
<symbol id="pd-envelope" viewBox="0 0 16 16">
<title>envelope</title>
<path d="M8.008 9.431l-2.036-1.671-4.431 5.232h12.938l-4.431-5.284-2.040 1.723zM14.963 3.010h-13.908l6.954 5.849 6.954-5.849zM10.352 7.444l4.646 5.542v-9.476l-4.646 3.934zM1.002 3.51v9.476l4.646-5.542-4.646-3.934z"></path>
</symbol>
<symbol id="pd-crop" viewBox="0 0 16 16">
<title>crop</title>
<path d="M12.501 4.197v6.266h2.019v2.020h-11.030v-10.967h2.019v1.989h6.215l2.319-2.32 0.703 0.703-2.246 2.309zM5.511 5.492v4.258l4.226-4.258h-4.226zM10.482 6.185l-4.309 4.279h4.309v-4.279zM1.503 3.505h1.523v1.989h-1.522v-1.989zM12.501 14.471h-2.019v-1.491h2.020v1.491z"></path>
</symbol>
<symbol id="pd-forward" viewBox="0 0 16 16">
<title>forward</title>
<path d="M13.649 5.559l-4.644 4.466v-2.706c-1.406 0-4.987 0.031-4.987 3.713 0 1.928 1.367 3.536 3.186 3.908-2.921-0.396-5.18-2.873-5.18-5.903 0-5.628 6.013-5.676 6.981-5.676v-2.304l4.643 4.501z"></path>
</symbol>
<symbol id="pd-reply" viewBox="0 0 16 16">
<title>reply</title>
<path d="M2.344 5.559l4.643 4.466v-2.706c1.406 0 4.987 0.031 4.987 3.713 0 1.928-1.367 3.536-3.184 3.908 2.921-0.396 5.18-2.873 5.18-5.903 0-5.628-6.013-5.676-6.981-5.676v-2.303l-4.644 4.5z"></path>
</symbol>
<symbol id="pd-profile" viewBox="0 0 16 16">
<title>profile</title>
<path d="M14 12.5h-1.5v-0.5c0.277 0 0.5-0.224 0.5-0.5s-0.223-0.5-0.5-0.5h-1c-0.277 0-0.5 0.223-0.5 0.5s0.223 0.5 0.5 0.5v0.5h-6.5v-0.5c0.277 0 0.5-0.224 0.5-0.5s-0.223-0.5-0.5-0.5h-1c-0.276 0-0.5 0.223-0.5 0.5s0.224 0.5 0.5 0.5v0.5h-2c-0.552 0-1-0.448-1-1v-7c0-0.552 0.448-1 1-1h12c0.552 0 1 0.448 1 1v7c0 0.552-0.448 1-1 1zM5 4.906c-0.604 0-1.094 0.644-1.094 1.438s0.49 1.438 1.094 1.438 1.094-0.644 1.094-1.438-0.49-1.438-1.094-1.438zM6.745 8.344c-0.269-0.179-1.045-0.299-1.045-0.299s-0.503 0.537-0.716 0.537c-0.214 0-0.717-0.537-0.717-0.537s-0.776 0.119-1.045 0.299c-0.269 0.179-0.389 1.13-0.389 1.13h4.307c0-0.001-0.079-0.92-0.395-1.13zM13 5.5h-4.5v0.5h4.5v-0.5zM13 6.5h-4.5v0.5h4.5v-0.5zM13 7.5h-4.5v0.5h4.5v-0.5zM13 8.5h-4.5v0.5h4.5v-0.5z"></path>
</symbol>
<symbol id="pd-hourglass" viewBox="0 0 16 16">
<title>hourglass</title>
<path d="M12.25 14c0.137 0 0.25 0.112 0.25 0.25s0 0.75 0 0.75h-9.5c0 0 0-0.612 0-0.75s0.112-0.25 0.25-0.25h0.835c0.042-3.329 2.216-4.402 2.216-5.747 0-1.353-2.215-1.442-2.236-5.753h-0.816c-0.138 0-0.25-0.112-0.25-0.25s0-0.75 0-0.75h9.5c0 0 0 0.612 0 0.75s-0.113 0.25-0.25 0.25h-0.765c-0.021 4.31-2.236 4.4-2.236 5.753 0 1.345 2.175 2.418 2.216 5.747h0.784zM8.556 8.252c0-1.358 2.215-1.442 2.236-5.753h-6.032c0.021 4.31 2.236 4.394 2.236 5.753 0 1.306-2.176 2.406-2.216 5.748h0.379c0.089-0.296 0.385-0.653 0.895-0.917l0.663-0.338c0.417-0.216 0.667-0.361 0.75-0.436s0.177-0.243 0.282-0.504c0.111 0.261 0.205 0.428 0.285 0.504s0.327 0.22 0.742 0.436l0.66 0.338c0.508 0.264 0.802 0.62 0.889 0.917h0.447c-0.041-3.341-2.216-4.442-2.216-5.747zM8.035 7.519c-0.060 0.118-0.111 0.343-0.151 0.673-0.010 0.1-0.032 0.251-0.067 0.451-0.035-0.2-0.058-0.351-0.067-0.451-0.040-0.331-0.091-0.555-0.152-0.673-0.061-0.117-0.231-0.329-0.513-0.635l-0.625-0.684c-0.428-0.461-0.702-0.792-0.822-0.992 0.742 0.473 1.466 0.709 2.174 0.709s1.434-0.237 2.181-0.709c-0.125 0.2-0.4 0.531-0.825 0.992l-0.623 0.684c-0.28 0.306-0.45 0.518-0.51 0.636z"></path>
</symbol>
<symbol id="pd-attachment" viewBox="0 0 16 16">
<title>attachment</title>
<path d="M11.53 6.721c0 0 0.586-0.446 0.14-0.891s-0.88 0.13-0.88 0.13l-3.485 3.485c0 0-1.051 1.355-1.848 0.535s0.535-1.848 0.535-1.848l4.879-4.88c0 0 1.372-1.512 2.661-0.223s-0.226 2.664-0.226 2.664l-6.606 6.607c0 0-2.114 2.442-4.072 0.485s0.508-4.047 0.508-4.047l5.017-5.017c0 0 0.563-0.469 0.14-0.891s-0.891 0.14-0.891 0.14l-5.755 5.755c0 0-2.172 2.383 0.254 4.809s4.809 0.255 4.809 0.255l7.911-7.912c0 0 1.582-1.747-0.304-3.634s-3.634-0.304-3.634-0.304l-5.805 5.806c0 0-1.745 1.417-0.162 2.999s2.976-0.186 2.976-0.186l3.837-3.837z"></path>
</symbol>
<symbol id="pd-volume3" viewBox="0 0 16 16">
<title>volume3</title>
<path d="M14.357 7.968l1.12 1.121c0.073 0.072 0.073 0.191 0 0.264l-0.396 0.396c-0.072 0.072-0.191 0.072-0.264 0l-1.12-1.121-1.121 1.121c-0.073 0.072-0.191 0.072-0.264 0l-0.396-0.396c-0.072-0.073-0.072-0.191 0-0.264l1.121-1.121-1.121-1.121c-0.072-0.073-0.072-0.191 0-0.263l0.396-0.396c0.073-0.073 0.191-0.073 0.264 0l1.121 1.12 1.12-1.12c0.073-0.073 0.191-0.073 0.264 0l0.396 0.396c0.073 0.073 0.073 0.191 0 0.263l-1.12 1.121zM9.137 14.217l-4.189-2.92v-6.625l4.189-2.889c0.553 0 1.345 0.418 1.345 0.933v10.567c0.001 0.516-0.791 0.934-1.345 0.934zM0.468 10.053v-4.077c0-0.515 0.448-1.247 1-1.247h3.014v6.501h-3.014c-0.552 0.001-1-0.661-1-1.177z"></path>
</symbol>
<symbol id="pd-volume2" viewBox="0 0 18 16">
<title>volume2</title>
<path d="M11.835 5.292l-0.495 1.010c0.473 0.406 0.774 1.008 0.774 1.681 0 0.741-0.168 1.411-0.726 1.813l0.479 0.854c0.73-0.655 1.191-1.607 1.191-2.665-0.001-1.072-0.473-2.035-1.221-2.691zM15.509 1.756l-0.697 0.845c1.299 1.418 2.121 3.308 2.121 5.382 0 2.071-0.82 3.958-2.115 5.375l0.696 0.863c1.482-1.668 2.379-3.824 2.379-6.238-0-2.407-0.91-4.56-2.384-6.227zM13.661 3.483l-0.62 0.892c0.921 0.925 1.505 2.2 1.505 3.609 0 1.437-0.607 2.735-1.562 3.665l0.645 0.855c1.152-1.177 1.847-2.742 1.847-4.519 0-1.744-0.699-3.329-1.815-4.5zM0 6.003v4.045c0 0.515 0.448 1.177 1 1.177h3.014v-6.47h-3.014c-0.552 0-1 0.732-1 1.248zM8.671 1.81l-4.191 2.889v6.625l4.191 2.92c0.552 0 1.344-0.418 1.344-0.934v-10.566c0-0.515-0.792-0.933-1.344-0.933z"></path>
</symbol>
<symbol id="pd-volume" viewBox="0 0 16 16">
<title>volume</title>
<path d="M11.662 14.467l-4.19-2.92v-6.625l4.19-2.889c0.553 0 1.345 0.418 1.345 0.933v10.567c0.001 0.516-0.791 0.934-1.345 0.934zM7.006 11.449h-3.014c-0.552 0-1-0.661-1-1.177v-4.045c0-0.515 0.448-1.248 1-1.248h3.014v6.47z"></path>
</symbol>
<symbol id="pd-chat3" viewBox="0 0 16 16">
<title>chat3</title>
<path d="M8 2.637c-3.47 0-6.282 2.094-6.282 4.676 0 1.552 1.016 2.927 2.58 3.777-0.005 0.014-1.246 2.272-1.246 2.272s3.791-1.446 3.802-1.452c0.372 0.052 0.755 0.078 1.147 0.078 3.47 0 6.283-2.094 6.283-4.676s-2.813-4.676-6.283-4.676zM4.984 7.813c-0.276 0-0.5-0.224-0.5-0.5s0.224-0.5 0.5-0.5 0.5 0.223 0.5 0.5c0 0.276-0.223 0.5-0.5 0.5zM6.973 7.833c-0.276 0-0.5-0.224-0.5-0.5s0.224-0.5 0.5-0.5c0.277 0 0.5 0.223 0.5 0.5s-0.223 0.5-0.5 0.5zM8.994 7.833c-0.276 0-0.5-0.224-0.5-0.5s0.224-0.5 0.5-0.5c0.277 0 0.5 0.223 0.5 0.5s-0.223 0.5-0.5 0.5zM10.994 7.833c-0.276 0-0.5-0.224-0.5-0.5s0.224-0.5 0.5-0.5c0.277 0 0.5 0.223 0.5 0.5s-0.223 0.5-0.5 0.5z"></path>
</symbol>
<symbol id="pd-brush" viewBox="0 0 16 16">
<title>brush</title>
<path d="M13.777 4.21c-0.678 0.824-2.535 3.098-4.011 4.905l-1.873-1.902c1.694-1.508 3.792-3.372 4.55-4.040 1.348-1.188 2.531-1.895 2.788-1.607 0.161 0.16-0.267 1.198-1.454 2.643zM9.44 9.515c-0.572 0.7-1.063 1.302-1.364 1.671l-2.218-2.162c0.359-0.32 0.958-0.853 1.652-1.47l1.93 1.96zM7.745 11.591v-0.006c-1.287 4.94-7.009 2.1-7.009 2.1s2.401 0.303 2.401-1.937c0-2.171 2.206-2.367 2.341-2.377l2.272 2.213c0 0.001-0.005 0.005-0.005 0.005z"></path>
</symbol>
<symbol id="pd-tools" viewBox="0 0 16 16">
<title>tools</title>
<path d="M13.892 3.968c0.479 1.157 0.251 2.537-0.69 3.478-1.036 1.035-2.601 1.198-3.817 0.511l-0.88 0.96 0.627 0.63 0.375-0.375c0.191-0.192 0.502-0.192 0.694 0l3.041 3.072c0.192 0.191 0.192 0.502 0 0.694l-1.388 1.388c-0.191 0.192-0.502 0.192-0.694 0l-3.041-3.072c-0.192-0.191-0.192-0.502 0-0.694l0.342-0.342-0.598-0.6-4.205 4.595c-0.384 0.383-1.005 0.383-1.388 0l-0.347-0.347c-0.383-0.383-0.383-1.005 0-1.388l4.791-4.012-3.182-3.191-1.005-0-1.163-1.87 0.936-0.938 1.912 1.171 0.013 0.984 3.219 3.232 0.937-0.784c-0.915-1.248-0.82-3.006 0.308-4.134 0.936-0.936 2.309-1.169 3.463-0.698l-2.062 2.034 1.736 1.736 2.066-2.038zM3.075 12.967c-0.192-0.191-0.502-0.191-0.694 0s-0.192 0.502 0 0.694c0.192 0.191 0.502 0.191 0.694 0 0.192-0.193 0.192-0.503 0-0.694z"></path>
</symbol>
<symbol id="pd-moneybag" viewBox="0 0 16 16">
<title>moneybag</title>
<path d="M7.008 4.651h1.967v-0.738h-1.967v0.738zM8.961 4.896h-1.952c0 0-3.212 3.166-3.212 6.271 0 3.29 3.366 3.551 3.366 3.551s1.004 0.166 1.629 0c0 0 3.413-0.4 3.413-3.535 0.001-3.136-3.242-6.287-3.242-6.287zM9.105 11.562c-0.079 0.16-0.185 0.294-0.322 0.401s-0.294 0.188-0.475 0.242c-0.023 0.007-0.048 0.009-0.072 0.015v0.546h-0.492v-0.482c-0.006 0.001-0.012 0.002-0.018 0.002-0.139 0-0.269-0.011-0.389-0.034s-0.225-0.050-0.317-0.082c-0.092-0.032-0.168-0.066-0.229-0.101s-0.106-0.066-0.133-0.093c-0.027-0.027-0.046-0.066-0.058-0.117s-0.017-0.124-0.017-0.22c0-0.065 0.002-0.118 0.006-0.162s0.011-0.079 0.021-0.107c0.010-0.027 0.021-0.046 0.037-0.058s0.034-0.017 0.054-0.017c0.029 0 0.071 0.017 0.123 0.052s0.121 0.072 0.205 0.114c0.083 0.042 0.183 0.079 0.298 0.114s0.25 0.052 0.402 0.052c0.1 0 0.189-0.012 0.269-0.036s0.146-0.057 0.201-0.101c0.056-0.044 0.098-0.098 0.127-0.162s0.044-0.136 0.044-0.216c0-0.091-0.025-0.17-0.075-0.236s-0.116-0.123-0.196-0.175c-0.080-0.051-0.171-0.098-0.273-0.143s-0.207-0.092-0.316-0.142c-0.109-0.050-0.213-0.107-0.316-0.171s-0.194-0.139-0.274-0.227-0.145-0.194-0.196-0.314c-0.050-0.12-0.074-0.265-0.074-0.434 0-0.194 0.036-0.364 0.107-0.511s0.169-0.268 0.29-0.365c0.122-0.097 0.266-0.169 0.431-0.217 0.085-0.024 0.173-0.043 0.263-0.054v-0.518h0.491v0.517c0.020 0.002 0.040 0.002 0.059 0.005 0.095 0.014 0.185 0.034 0.268 0.059s0.157 0.053 0.222 0.084 0.107 0.056 0.128 0.078c0.021 0.021 0.035 0.038 0.043 0.053s0.012 0.034 0.018 0.058c0.005 0.024 0.009 0.054 0.011 0.091s0.003 0.082 0.003 0.136c0 0.060-0.002 0.112-0.005 0.154s-0.008 0.076-0.015 0.103c-0.007 0.027-0.018 0.047-0.031 0.059s-0.031 0.018-0.055 0.018c-0.023 0-0.059-0.014-0.11-0.043s-0.111-0.060-0.184-0.095c-0.073-0.034-0.157-0.065-0.253-0.094s-0.201-0.041-0.316-0.041c-0.090 0-0.168 0.011-0.234 0.033s-0.122 0.052-0.168 0.090c-0.045 0.039-0.078 0.085-0.099 0.139s-0.032 0.111-0.032 0.171c0 0.090 0.024 0.168 0.073 0.233s0.114 0.124 0.197 0.175c0.082 0.052 0.175 0.099 0.28 0.143s0.21 0.092 0.319 0.142c0.108 0.050 0.214 0.107 0.319 0.171s0.197 0.139 0.278 0.228 0.146 0.193 0.197 0.312c0.050 0.12 0.075 0.261 0.075 0.424-0.001 0.211-0.040 0.397-0.12 0.557zM8.945 3.667l0.999-2.459c0 0-0.63 0.523-0.999 0.523s-0.954-0.507-0.954-0.507-0.63 0.507-0.999 0.507c-0.369 0-0.968-0.492-0.968-0.492l1.014 2.429h1.906z"></path>
</symbol>
<symbol id="pd-lamp3" viewBox="0 0 16 16">
<title>lamp3</title>
<path d="M8.873 7.008c-0.625 0.281-2.011-0.407-2.011-0.407-1.624-0.974 0.61 3.036 0.61 3.036s0.046 1.252 0.327 1.408c2.343-3.281 1.699-4.318 1.074-4.037zM8.030 10.12c-0.189 0-0.986-2.389-0.892-2.889 0.625 0.063 1.205 0.298 1.548 0.111 0.969-0.439-0.438 2.779-0.656 2.779zM9.976 11.973c0.057-3.652 2.023-5.058 2.023-7.233 0-1.856-1.27-4.225-3.935-4.225s-4.063 2.267-4.063 4.242c0 2.218 1.997 3.612 1.997 7.239h2.021c0 0 1.899-0.023 1.957-0.023zM6.404 11.51c0-3.386-1.934-4.686-1.934-6.756 0-1.844 1.255-3.778 3.586-3.778s3.474 2.030 3.474 3.762c0 2.030-1.907 3.371-1.958 6.78-0.051 0-1.556-0.008-1.556-0.008h-1.613zM9.752 12.507h-3.5c-0.138 0-0.25 0.112-0.25 0.25s0.112 0.25 0.25 0.25h3.5c0.137 0 0.25-0.112 0.25-0.25s-0.113-0.25-0.25-0.25zM9.752 13.507h-3.5c-0.138 0-0.25 0.112-0.25 0.25s0.112 0.25 0.25 0.25h3.5c0.137 0 0.25-0.112 0.25-0.25s-0.113-0.25-0.25-0.25zM6.498 14.521c0 0 0 0.167 0 0.45s0.222 0.512 0.496 0.512h2.015c0.274 0 0.496-0.229 0.496-0.512s-0.031-0.45-0.031-0.45h-2.976z"></path>
</symbol>
<symbol id="pd-lamp" viewBox="0 0 16 16">
<title>lamp</title>
<path d="M8.065 0.89c-2.686 0-4.095 2.118-4.095 4.045 0 2.162 2.012 3.522 2.012 7.057h2.037c0 0 1.914 0.009 1.972 0.009 0.058-3.562 2.039-4.963 2.039-7.083 0.001-1.809-1.28-4.028-3.965-4.028zM9.737 12.515h-3.5c-0.138 0-0.25 0.112-0.25 0.25s0.112 0.25 0.25 0.25h3.5c0.137 0 0.25-0.112 0.25-0.25s-0.113-0.25-0.25-0.25zM9.737 13.515h-3.5c-0.138 0-0.25 0.112-0.25 0.25s0.112 0.25 0.25 0.25h3.5c0.137 0 0.25-0.112 0.25-0.25s-0.113-0.25-0.25-0.25zM6.487 14.515c0 0 0 0.223 0 0.5s0.223 0.5 0.5 0.5h2.007c0.277 0 0.5-0.224 0.5-0.5s0-0.5 0-0.5h-3.007z"></path>
</symbol>
<symbol id="pd-megaphone" viewBox="0 0 16 16">
<title>megaphone</title>
<path d="M14.037 9.060v3.948c0 0.276-0.156 0.499-0.499 0.499-0.083 0-0.288-0.177-0.541-0.444v-10.597c0.252-0.267 0.458-0.444 0.541-0.444 0.374 0 0.499 0.224 0.499 0.499v4.048c0.677 0.019 1.306 0.567 1.306 1.245s-0.63 1.226-1.306 1.245zM6.008 10.023c0.031 0 0-4.514 0-4.514 3.428 0 5.461-1.505 6.532-2.537v9.588c-1.071-1.031-3.104-2.537-6.532-2.537zM4.011 13.976l-0.998-3.963h-0.999c0 0-0.297-0.674-0.432-1.498-0.254 0-0.477 0-0.567 0-0.276 0-0.499-0.223-0.499-0.499v-0.499c0-0.276 0.224-0.5 0.499-0.5 0.090 0 0.313 0 0.567 0 0.135-0.824 0.432-1.498 0.432-1.498h3.495v4.494h-0.998l0.126 0.499h0.498l0.25 0.999h-0.497l0.622 2.466h-1.497z"></path>
</symbol>
<symbol id="pd-archive" viewBox="0 0 16 16">
<title>archive</title>
<path d="M6.535 2.601l-2.898-0.776c-0.267-0.071-0.541 0.087-0.612 0.353l-2.977 11.108c-0.071 0.267 0.087 0.541 0.354 0.613l2.897 0.777c0.267 0.072 0.541-0.087 0.612-0.354l2.976-11.108c0.071-0.267-0.087-0.541-0.354-0.612zM3.89 12.472c-0.215 0.8-1.036 1.275-1.837 1.060s-1.275-1.037-1.060-1.837 1.036-1.276 1.837-1.060c0.8 0.214 1.275 1.037 1.060 1.837zM4.465 10.329l-2.897-0.777 1.553-5.795 2.898 0.777-1.553 5.795zM9.469 11.5c-0.415 0-0.75 0.336-0.75 0.75s0.335 0.75 0.75 0.75c0.414 0 0.75-0.336 0.75-0.75s-0.336-0.75-0.75-0.75zM5.405 4.886l-1.933-0.518-0.129 0.483 1.932 0.518 0.13-0.483zM5.016 6.335l0.13-0.483-1.932-0.518-0.13 0.483 1.932 0.518zM2.627 11.389c-0.4-0.107-0.812 0.13-0.918 0.53s0.13 0.812 0.53 0.918c0.4 0.107 0.812-0.13 0.918-0.53s-0.131-0.811-0.53-0.918zM14.969 4.5h-2v0.5h2v-0.5zM14.969 6.5h-2v0.5h2v-0.5zM14.969 5.5h-2v0.5h2v-0.5zM13.969 11.5c-0.415 0-0.75 0.336-0.75 0.75s0.335 0.75 0.75 0.75c0.414 0 0.75-0.336 0.75-0.75s-0.336-0.75-0.75-0.75zM15.469 2h-3c-0.277 0-0.5 0.224-0.5 0.5v11.5c0 0.276 0.223 0.5 0.5 0.5h3c0.276 0 0.5-0.224 0.5-0.5v-11.5c0-0.276-0.225-0.5-0.5-0.5zM13.969 13.75c-0.829 0-1.5-0.672-1.5-1.5s0.671-1.5 1.5-1.5c0.828 0 1.5 0.671 1.5 1.5s-0.672 1.5-1.5 1.5zM15.469 10h-3v-6h3v6zM10.469 4.5h-2v0.5h2v-0.5zM10.469 6.5h-2v0.5h2v-0.5zM10.969 2h-3c-0.277 0-0.5 0.224-0.5 0.5v11.5c0 0.276 0.223 0.5 0.5 0.5h3c0.276 0 0.5-0.224 0.5-0.5v-11.5c0-0.276-0.225-0.5-0.5-0.5zM9.469 13.719c-0.829 0-1.5-0.672-1.5-1.5s0.671-1.5 1.5-1.5c0.828 0 1.5 0.671 1.5 1.5s-0.672 1.5-1.5 1.5zM10.969 10h-3v-6h3v6zM10.469 5.5h-2v0.5h2v-0.5zM2.826 6.784l1.932 0.518 0.13-0.483-1.932-0.518-0.13 0.483z"></path>
</symbol>
<symbol id="pd-bomb" viewBox="0 0 18 16">
<title>bomb</title>
<path d="M16.614 3.964l1.642 0.232-1.46 0.773 1.058 0.967-1.532-0.194 0.948 1.973-1.898-1.431-1.569 1.895 0.73-2.358-2.3 1.237 1.605-1.74-0.11-0.428c-0.434 0.216-1.047 0.436-1.69 0.411-0.851 0-1.909-0.594-3.172-1.656 0 0-1.431-1.513-2.633-1.513-1.237 0-1.116 1.861-1.115 1.88h1.401v1.266c1.781 0.686 2.985 2.409 2.985 4.433 0 2.625-2.128 4.753-4.753 4.753s-4.753-2.129-4.753-4.754c0-2.023 1.234-3.747 3.015-4.433v-1.266h1.252c-0.002-0.010-0.144-1.372 0.575-2.128 0.383-0.403 0.852-0.605 1.407-0.605 1.668 0 3.166 1.756 3.166 1.756 1.098 0.942 1.992 1.413 2.685 1.413 0.281 0 0.853-0.177 1.147-0.274l-0.903-0.711 1.569 0.115-1.204-1.856 1.97 1.392 0.219-1.315 0.364 1.199 1.46-1.74-0.329 1.934 1.678-0.386-1.459 1.16z"></path>
</symbol>
<symbol id="pd-skeletor" viewBox="0 0 16 16">
<title>skeletor</title>
<path d="M9.986 7.301c0.289-0.044 0.833-0.236 1.024-0.386 0.209-0.122 0.318-0.267 0.324-0.436 0.021-0.258 0.009-0.508-0.035-0.75s-0.094-0.521-0.148-0.832c-0.588 0.926-1.386 1.551-2.393 1.876l-0.112 0.243c0.473 0.304 0.92 0.399 1.339 0.284v0zM6.71 6.774c-1.014-0.325-1.816-0.95-2.404-1.876-0.048 0.311-0.095 0.588-0.142 0.832s-0.058 0.493-0.030 0.75c0.013 0.176 0.122 0.321 0.324 0.436 0.153 0.126 0.755 0.362 1.014 0.386 0.419 0.114 0.865 0.020 1.339-0.284l-0.101-0.244zM7.009 8.508c-0.077 0.203-0.063 0.518 0.046 0.789h0.471v-1.489c-0.197 0.264-0.439 0.497-0.516 0.7zM8.027 9.296h0.454c0.027-0.074 0.047-0.219 0.061-0.277s0.021-0.12 0.021-0.188c0-0.182-0.040-0.348-0.117-0.497s-0.282-0.324-0.418-0.527v1.489zM13.284 4.327c0.101 0.399 0.136 0.804 0.101 1.217-0.068 0.825-0.419 1.653-1.055 2.302l0.558 1.065-0.822 0.933c-1.163-0.555-1.531 0.022-1.531 0.832v3.325h-0.524v-2.982h-0.473v2.982h-0.544v-2.982h-0.469v2.982h-0.517v-2.982h-0.469v2.982h-0.516v-2.973l-0.47-0.009v2.982h-0.545v-2.982h-0.471v2.982h-0.518v-3.325c0-0.813-0.433-1.428-1.599-0.832l-0.841-0.933 0.588-1.065c-0.635-0.649-0.976-1.476-1.050-2.306-0.038-0.417-0.007-0.824 0.091-1.223 0.498-2.028 2.248-2.349 2.591-2.404 1.952-0.27 3.909-0.27 5.869 0 0.335 0.058 2.107 0.409 2.616 2.413z"></path>
</symbol>
<symbol id="pd-spaceinvaders" viewBox="0 0 17 16">
<title>spaceinvaders</title>
<path d="M14.982 12.491v-2.973h-1.455v2.985h-1.518v1.476h-3.524v-1.488h3.524v-1.486h-7.495v1.486l3.015 0.011v1.486h-3.026v-1.476h-1.518v-3.005h-1.456v2.973h-1.528v-4.502h1.498v-1.446h1.486v-1.529h1.529v-1.497h1.497v1.502l4.492 0.012v-1.514h1.497v1.518h1.528v1.487h1.476v1.486h1.507v4.491h-1.528zM6.010 6.503h-1.497v1.497h1.497v-1.498zM11.998 6.503h-1.497v1.497h1.497v-1.498zM2.984 2.011h1.529v1.497h-1.529v-1.497zM13.527 2.011v1.497h-1.528v-1.497h1.528z"></path>
</symbol>
<symbol id="pd-batman" viewBox="0 0 20 16">
<title>batman</title>
<path d="M9.75 2.125c-5.385 0-9.75 2.63-9.75 5.875s4.365 5.875 9.75 5.875 9.75-2.63 9.75-5.875-4.365-5.875-9.75-5.875zM15.277 11.765c0 0.031 0.976-1.178 0.195-1.991-0.937-1.062-2.558 0.528-2.558 0.528-1.281-2.53-3.212 1.572-3.212 1.572s-1.674-3.866-3.111-1.524c0.031 0-1.191-1.396-2.409-0.741-0.875 0.874 0 2.046 0 2.046-4.559-1.593-4.856-6.246 1.476-8.143-1.788 2.24 3.295 5.324 2.92-0.172l1.078 0.945c0 0 1.085-0.898 1.085-0.961-0.125 5.496 4.684 2.272 3.061 0.242 5.715 1.654 6.691 5.605 1.476 8.197z"></path>
</symbol>
<symbol id="pd-transformers" viewBox="0 0 16 16">
<title>transformers</title>
<path d="M12.557 2.632l0.023-0.728c-1.347-0.674-2.843-1.077-4.487-1.077s-3.326 0.403-4.673 1.077l0.022 0.728 4.558 2.99 4.558-2.99zM8 2.278c0.938 0 1.724 0.3 1.724 0.3l-1.724 1.159-1.724-1.159c0 0 0.787-0.3 1.724-0.3zM9.037 11.989v-3.51l0.234-3.018-1.271 0.835-1.239-0.835 0.265 3.018v3.51h2.011zM6.195 5.138l-3.394-2.263-0.022-0.881h-1.998l0.296 4.275 2.425 1.733h2.963l-0.27-2.864zM2.342 5.327l3.206 1.509 0.053 0.495-3.179-1.438-0.081-0.566zM2.208 3.791l3.179 1.536 0.080 0.535-3.205-1.478-0.054-0.593zM2.154 13.274l2.367 1.212v-4.706l-1.398-0.87v-0.539l-1.374-0.943 0.405 5.846zM6.527 12.496v-3.506l-1.535 0.781v5.093l0.692 0.431 0.943-2.299h2.748l0.943 2.299 0.723-0.431v-5.093l-1.536-0.781v3.506h-2.978zM7.084 13.535l-0.7 1.966h3.233l-0.7-1.966h-1.832zM9.536 8.002h2.963l2.425-1.733 0.296-4.275h-1.998l-0.023 0.881-3.395 2.263-0.269 2.864zM13.576 5.893l-3.21 1.5 0.085-0.557 3.206-1.509-0.081 0.566zM13.739 4.383l-3.206 1.509 0.081-0.566 3.179-1.535-0.054 0.593zM14.25 7.428l-1.373 0.943v0.539l-1.377 0.87v4.706l2.347-1.212 0.404-5.846z"></path>
</symbol>
<symbol id="pd-zoomout" viewBox="0 0 16 16">
<title>zoomout</title>
<path d="M3.997 5.506h2.508v0.502h-2.508zM14.578 13.562l-2.838-2.837c-0.328-0.329-0.822-0.365-1.205-0.142l-1.518-1.518c0.8-0.889 1.29-2.061 1.29-3.35 0-2.771-2.245-5.016-5.016-5.016s-5.016 2.245-5.016 5.016c0 2.77 2.245 5.016 5.016 5.016 1.119 0 2.148-0.37 2.982-0.989l1.552 1.551c-0.223 0.384-0.188 0.877 0.14 1.206l2.838 2.837c0.392 0.392 1.027 0.392 1.419 0l0.354-0.354c0.391-0.392 0.391-1.027-0.001-1.419zM5.282 9.456c-2.078 0-3.761-1.684-3.761-3.761s1.684-3.761 3.761-3.761 3.762 1.684 3.762 3.761-1.684 3.761-3.762 3.761z"></path>
</symbol>
<symbol id="pd-zoomin" viewBox="0 0 16 16">
<title>zoomin</title>
<path d="M14.578 14.98l-0.354 0.354c-0.393 0.392-1.027 0.392-1.419 0l-2.838-2.837c-0.328-0.329-0.364-0.822-0.14-1.206l-1.552-1.551c-0.835 0.619-1.864 0.989-2.982 0.989-2.77 0-5.016-2.245-5.016-5.016s2.245-5.016 5.016-5.016c2.771 0 5.016 2.245 5.016 5.016 0 1.29-0.49 2.462-1.29 3.35l1.518 1.518c0.384-0.223 0.877-0.188 1.205 0.142l2.838 2.837c0.392 0.393 0.392 1.028 0.001 1.419zM9.044 5.694c0-2.078-1.684-3.761-3.762-3.761s-3.762 1.683-3.762 3.761 1.684 3.761 3.761 3.761 3.763-1.684 3.763-3.761zM5.501 6.979h-0.502v-0.971h-1.003v-0.502h1.003v-1.003h0.502v1.003h1.003v0.502h-1.003v0.971z"></path>
</symbol>
<symbol id="pd-magnifier" viewBox="0 0 16 16">
<title>magnifier</title>
<path d="M14.578 14.98l-0.354 0.354c-0.393 0.392-1.027 0.392-1.419 0l-2.838-2.837c-0.328-0.329-0.364-0.822-0.14-1.206l-1.552-1.551c-0.835 0.619-1.864 0.989-2.982 0.989-2.77 0-5.016-2.245-5.016-5.016s2.245-5.016 5.016-5.016c2.771 0 5.016 2.245 5.016 5.016 0 1.29-0.49 2.462-1.29 3.35l1.518 1.518c0.384-0.223 0.877-0.188 1.205 0.142l2.838 2.837c0.392 0.393 0.392 1.028 0.001 1.419zM9.044 5.694c0-2.078-1.684-3.761-3.762-3.761s-3.762 1.683-3.762 3.761 1.684 3.761 3.761 3.761 3.763-1.684 3.763-3.761z"></path>
</symbol>
<symbol id="pd-unlocked" viewBox="0 0 16 16">
<title>unlocked</title>
<path d="M14.5 7.5v-2.25c0-1.519-1.232-2.75-2.75-2.75s-2.75 1.231-2.75 2.75v2.285h2.5v7.965h-11.5v-8h7.5v-2.5c0-2.209 1.79-4 4-4h0.5c2.209 0 4 1.791 4 4v2.5h-1.5zM5.75 9.469c-0.553 0-1 0.448-1 1 0 0.418 0.258 0.776 0.622 0.925l-0.372 2.606h1.5l-0.372-2.607c0.364-0.149 0.622-0.506 0.622-0.925 0-0.552-0.448-0.999-1-0.999z"></path>
</symbol>
<symbol id="pd-locked" viewBox="0 0 16 16">
<title>locked</title>
<path d="M2 15.5v-8h1.5v-2.5c0-2.209 1.79-4 4-4h0.5c2.209 0 4 1.791 4 4v2.5h1.5v8h-11.5zM7.372 11.393l-0.372 2.607h1.5l-0.373-2.607c0.364-0.149 0.623-0.506 0.623-0.925 0-0.552-0.448-1-1-1s-1 0.448-1 1c0 0.418 0.258 0.776 0.622 0.925zM10.5 5.25c0-1.519-1.232-2.75-2.75-2.75s-2.75 1.231-2.75 2.75v2.25h5.5v-2.25z"></path>
</symbol>
<symbol id="pd-key" viewBox="0 0 16 16">
<title>key</title>
<path d="M8.918 8.771l-5.024 5.024c-0.389 0.389-1.022 0.388-1.412-0.002s-0.392-1.022-0.002-1.412l0.382-0.382-1.083-1.083c-0.196-0.195-0.196-0.511-0.002-0.706s0.51-0.194 0.706 0.002l1.083 1.083 0.353-0.352-0.376-0.376c-0.196-0.196-0.196-0.511-0.001-0.706s0.51-0.194 0.706 0.001l0.375 0.376 0.353-0.352-1.083-1.083c-0.196-0.195-0.196-0.511-0.001-0.706s0.51-0.194 0.706 0.001l1.082 1.083 1.825-1.825c-1.183-1.647-1.329-3.614-0.24-4.703 1.265-1.265 3.716-0.866 5.473 0.891s2.156 4.207 0.891 5.473c-1.091 1.091-3.061 0.941-4.71-0.246zM11.675 4.601c-0.781-0.781-1.809-1.020-2.296-0.533s-0.248 1.514 0.533 2.296c0.781 0.781 1.809 1.019 2.296 0.533s0.248-1.514-0.533-2.295z"></path>
</symbol>
<symbol id="pd-medal2" viewBox="0 0 16 16">
<title>medal2</title>
<path d="M4.596 10.018c-0.625 0-0.708-0.292-0.708-0.292l-2.438 4.79 1.954-0.219 1.081 1.625c0 0 2.25-4.697 2.25-4.665-1.165-0.028-0.702-1.207-2.14-1.239zM10.091 10.533c0.303-0.51 0.752-0.768 1.345-0.777s0.893-0.309 0.902-0.902c0.008-0.593 0.267-1.042 0.777-1.345s0.62-0.714 0.33-1.232-0.29-1.035 0-1.553 0.179-0.928-0.33-1.232-0.768-0.752-0.777-1.345c-0.008-0.593-0.309-0.893-0.902-0.901s-1.042-0.266-1.345-0.776c-0.303-0.51-0.714-0.62-1.232-0.33s-1.035 0.29-1.553 0-0.928-0.179-1.232 0.33c-0.303 0.51-0.752 0.768-1.345 0.776s-0.893 0.309-0.901 0.902c-0.008 0.594-0.267 1.042-0.776 1.345s-0.62 0.714-0.33 1.231c0.29 0.518 0.29 1.035 0 1.553s-0.179 0.928 0.33 1.231c0.51 0.303 0.768 0.752 0.776 1.345 0.008 0.594 0.308 0.894 0.901 0.902s1.042 0.267 1.345 0.777c0.303 0.51 0.714 0.62 1.232 0.33s1.035-0.29 1.553 0 0.928 0.18 1.232-0.331zM8.759 8.002h-0.891v-3.363c-0.325 0.304-0.71 0.529-1.152 0.675v-0.809c0.232-0.076 0.486-0.22 0.758-0.433s0.46-0.46 0.561-0.743h0.723v4.671zM12.080 9.914c-1.781 0.188-1.419 0.628-1.825 0.972-0.469 0.5-1.053 0.403-1.053 0.403l2.75 4.728 0.675-1.75 1.923 0.25-2.47-4.602z"></path>
</symbol>
<symbol id="pd-washingmachine" viewBox="0 0 16 16">
<title>washingmachine</title>
<path d="M2 6.5v7.5c0 0.277 0.224 0.5 0.5 0.5h10.5c0.276 0 0.5-0.223 0.5-0.5v-7.5c0 0-2.822-1.031-5.755-1.031-2.814 0-5.745 1.031-5.745 1.031zM10.75 10.063c0 1.588-1.287 2.875-2.875 2.875s-2.875-1.287-2.875-2.875 1.287-2.875 2.875-2.875 2.875 1.287 2.875 2.875zM13 2h-10.5c-0.276 0-0.5 0.224-0.5 0.5v3.5c0 0 2.906-1 5.745-1 2.911 0 5.755 1 5.755 1v-3.5c0-0.276-0.224-0.5-0.5-0.5zM5.5 4h-2.5v-1h2.5v1zM9.249 4c-0.276 0-0.499-0.224-0.499-0.5s0.223-0.5 0.499-0.5c0.277 0 0.501 0.224 0.501 0.5s-0.224 0.5-0.501 0.5zM10.75 4c-0.277 0-0.5-0.224-0.5-0.5s0.223-0.5 0.5-0.5c0.276 0 0.5 0.224 0.5 0.5s-0.224 0.5-0.5 0.5zM12.219 4c-0.277 0-0.5-0.224-0.5-0.5s0.223-0.5 0.5-0.5c0.276 0 0.5 0.224 0.5 0.5s-0.225 0.5-0.5 0.5zM5.531 10.063c0 1.294 1.050 2.344 2.344 2.344s2.344-1.050 2.344-2.344c0-0.003-0.802 0.823-2.344-0.094s-2.344 0.091-2.344 0.094z"></path>
</symbol>
<symbol id="pd-refrigerator" viewBox="0 0 16 16">
<title>refrigerator</title>
<path d="M4 13.5c0 0.277 0.223 0.5 0.5 0.5h0.5v0.5h1v-0.5h4v0.5h1v-0.5h0.5c0.276 0 0.5-0.223 0.5-0.5v-4h-8v4zM4.5 10h0.5v1.5h-0.5v-1.5zM11.5 2h-7c-0.277 0-0.5 0.224-0.5 0.5v6.5h8v-6.5c0-0.276-0.223-0.5-0.5-0.5zM5 8.5h-0.5v-1.5h0.5v1.5z"></path>
</symbol>
<symbol id="pd-microwave" viewBox="0 0 18 16">
<title>microwave</title>
<path d="M17.5 14h-3.999v-11.5h3.999c0.276 0 0.5 0.224 0.5 0.5v10.5c0 0.276-0.224 0.5-0.5 0.5zM15.501 12h0.5v-0.5h-0.5v0.5zM15.501 11h0.5v-0.5h-0.5v0.5zM15.501 10h0.5v-0.5h-0.5v0.5zM14.501 12h0.499v-0.5h-0.499v0.5zM14.501 11h0.499v-0.5h-0.499v0.5zM14.501 10h0.499v-0.5h-0.499v0.5zM17 4.5h-2.5v1.5h2.5v-1.5zM17 9.5h-0.5v0.5h0.5v-0.5zM17 10.5h-0.5v0.5h0.5v-0.5zM17 11.5h-0.5v0.5h0.5v-0.5zM0 13.5v-10.5c0-0.276 0.224-0.5 0.5-0.5h12.5v11.5h-12.5c-0.277 0-0.5-0.224-0.5-0.5zM12.020 8.755c0.277 0 0.5-0.224 0.5-0.5s-0.223-0.5-0.5-0.5c-0.276 0-0.5 0.223-0.5 0.5s0.224 0.5 0.5 0.5zM2 11.5c0 0.276 0.224 0.5 0.5 0.5h8c0.277 0 0.5-0.224 0.5-0.5v-6.5c0-0.277-0.223-0.5-0.5-0.5h-8c-0.276 0-0.5 0.223-0.5 0.5v6.5z"></path>
</symbol>
<symbol id="pd-lab" viewBox="0 0 16 16">
<title>lab</title>
<path d="M9.666 9.521c0 0-0.832 1.063-1.895 0-1.031-1-1.781 0-1.781 0l-2.483 4.895c-0.072 0.267 0.087 0.54 0.353 0.612h8.248c0.267-0.072 0.425-0.345 0.354-0.612l-2.796-4.895zM13.47 14.165l-3.989-6.714v-0.013l-0.007-3.934h0.275c0.413 0 0.749-0.336 0.749-0.75s-0.336-0.749-0.749-0.749h-3.998c-0.413 0-0.749 0.336-0.749 0.749s0.335 0.75 0.749 0.75h0.241l-0.008 3.936-3.454 6.726c-0.214 0.8 0.26 1.621 1.060 1.835h8.82c0.8-0.214 1.274-1.036 1.059-1.835zM12.277 15.499l-8.554-0.009c-0.532-0.143-0.849-0.691-0.706-1.223l3.474-6.808 0.011-4.454h-0.749c-0.138 0-0.25-0.112-0.25-0.25s0.112-0.249 0.25-0.249h3.997c0.137 0 0.249 0.112 0.249 0.249s-0.111 0.25-0.249 0.25h-0.749l0.012 4.438 3.97 6.833c0.143 0.534-0.174 1.082-0.706 1.224zM8.24 1.256c0 0.276 0.224 0.5 0.5 0.5s0.5-0.224 0.5-0.5-0.223-0.5-0.5-0.5-0.5 0.224-0.5 0.5zM8.74 0.006c0.414 0 0.75-0.336 0.75-0.75s-0.336-0.75-0.75-0.75-0.75 0.335-0.75 0.75 0.336 0.75 0.75 0.75zM6.74 1.256c0.277 0 0.5-0.224 0.5-0.5s-0.223-0.5-0.5-0.5-0.5 0.224-0.5 0.5 0.223 0.5 0.5 0.5z"></path>
</symbol>
<symbol id="pd-trashcan" viewBox="0 0 16 16">
<title>trashcan</title>
<path d="M4 13c0 0.828 0.671 1.5 1.5 1.5h5c0.828 0 1.5-0.672 1.5-1.5l1-8h-10l1 8zM9.5 6.5h1v6.5h-1v-6.5zM7.5 6.5h1v6.5h-1v-6.5zM5.5 6.5h1v6.5h-1v-6.5zM12.75 3h-3.25c0 0-0.224-1-0.5-1h-2c-0.277 0-0.5 1-0.5 1h-3.25c-0.414 0-0.75 0.336-0.75 0.75s0 0.75 0 0.75h11c0 0 0-0.335 0-0.75s-0.336-0.75-0.75-0.75z"></path>
</symbol>
<symbol id="pd-direction" viewBox="0 0 16 16">
<title>direction</title>
<path d="M8.993 1.5h-2.5v1.5h2.5v-1.5zM8.993 7.5v-1h-2.5v1h2.5zM6.494 15h2.5v-4h-2.5v4zM12.493 6l-1.094-1.25 1.094-1.25h-8l-1.3 1.25 1.3 1.25h8zM11.493 8h-8l1.094 1.25-1.094 1.25h8l1.313-1.25-1.313-1.25z"></path>
</symbol>
<symbol id="pd-image" viewBox="0 0 16 16">
<title>image</title>
<path d="M14 14.5v-0.5h-0.5v-0.5h-0.5v-6.5h0.5v-0.5h0.5v-0.5h0.5v8.5h-0.5zM13.5 6.5h-0.5v0.5h-10v-0.5h-0.5v-0.5h-0.5v-0.5h12v0.5h-0.5v0.5zM2.5 6.5v0.5h0.5v6.5h-0.5v0.5h-0.5v0.5h-0.5v-8.5h0.5v0.5h0.5zM2.5 14h0.5v-0.5h10v0.5h0.5v0.5h0.5v0.5h-12v-0.5h0.5v-0.5zM6.428 11.491l1.143-1.848 1.143 1.152 1.572-2.366 1.643 4.071h-7.286l0.928-1.857 0.857 0.848zM5.745 9.505c-0.415 0-0.75-0.336-0.75-0.75s0.335-0.75 0.75-0.75c0.414 0 0.75 0.336 0.75 0.75s-0.336 0.75-0.75 0.75zM12.5 5.5l-3.661-2.725c-0.172 0.139-0.387 0.225-0.625 0.225-0.33 0-0.622-0.163-0.803-0.41l-3.91 2.91h-0.5l4.247-3.259c-0.019-0.078-0.032-0.158-0.032-0.241 0-0.552 0.447-1 0.999-1s1 0.448 1 1c0 0.179-0.052 0.346-0.134 0.492l3.921 3.008h-0.5z"></path>
</symbol>
<symbol id="pd-phone3" viewBox="0 0 16 16">
<title>phone3</title>
<path d="M13 16h-10.5c-0.552 0-1-0.448-1-1v-12c0-0.553 0.448-1 1-1v12c0 0.552 0.448 1 1 1h2c0.553 0 1-0.448 1-1v-12h6.5c0.553 0 1 0.448 1 1v12c0 0.552-0.447 1-1 1zM10.5 14.5h1v-1h-1v1zM10.5 13h1v-1h-1v1zM10.5 11.5h1v-1h-1v1zM10.5 10h1v-1h-1v1zM9 14.5h1v-1h-1v1zM9 13h1v-1h-1v1zM9 11.5h1v-1h-1v1zM9 10h1v-1h-1v1zM13 3.5c0-0.276-0.223-0.5-0.5-0.5h-4.5c-0.276 0-0.5 0.224-0.5 0.5v2c0 0.276 0.224 0.5 0.5 0.5h4.5c0.277 0 0.5-0.224 0.5-0.5v-2zM13 9h-1v1h1v-1zM13 10.5h-1v1h1v-1zM13 12h-1v1h1v-1zM13 13.5h-1v1h1v-1zM5.5 14.5h-2c-0.276 0-0.5-0.223-0.5-0.5v-12.5c0-0.276 0.224-0.5 0.5-0.5h0.969v-1h0.531v1h0.5c0.276 0 0.5 0.224 0.5 0.5v12.5c0 0.277-0.224 0.5-0.5 0.5z"></path>
</symbol>
<symbol id="pd-alarm-cancel" viewBox="0 0 16 16">
<title>alarm-cancel</title>
<path d="M13.896 12.639l0.001 0.912h-10.435l8.278-8.279c-0.015 2.040-0.011 4.588 1.114 5.652 1.277 1.21 1.042 1.714 1.042 1.714zM2.087 13.49l10.633-10.632 0.354 0.354-10.632 10.632-0.354-0.354zM3.926 10.925c1.277-1.21 1.109-4.336 1.109-6.454s2.974-2.163 2.974-2.163h0.101c0 0.001 0-0.014 0-0.344 0-0.212-0.71-0.978-0.71-0.978l-0.011-0.464h2.005l-0.014 0.481c0 0-0.769 0.765-0.769 0.991 0 0.218 0 0.291 0 0.313h0.159c0 0 1.9 0.032 2.662 1.127l-7.955 7.955c0.124-0.143 0.268-0.296 0.448-0.466zM9.646 14.035c0 0.693-0.561 1.441-1.253 1.441s-1.253-0.749-1.253-1.441c0 0.015 2.506-0.016 2.506 0z"></path>
</symbol>
<symbol id="pd-alarm" viewBox="0 0 16 16">
<title>alarm</title>
<path d="M13.507 12.639v0.912h-11.013v-0.912c0 0-0.236-0.505 1.042-1.714 1.277-1.21 1.109-4.336 1.109-6.454s2.974-2.163 2.974-2.163h0.102c0 0.001 0-0.014 0-0.344 0-0.212-0.71-0.978-0.71-0.978l-0.011-0.464h2.005l-0.014 0.481c0 0-0.77 0.765-0.77 0.991 0 0.218 0 0.291 0 0.313h0.159c0 0 2.974 0.045 2.974 2.163s-0.168 5.244 1.11 6.455 1.042 1.714 1.042 1.714zM9.256 14.035c0 0.693-0.561 1.441-1.253 1.441s-1.253-0.749-1.253-1.441c0 0.015 2.506-0.016 2.506 0z"></path>
</symbol>
<symbol id="pd-gamepad" viewBox="0 0 16 16">
<title>gamepad</title>
<path d="M11.507 2.229c-0.708 0-2.083 1-3.25 1s-2.625-1-3.25-1c-4.292 0-6.75 11.541-3.542 11.541 2.708 0 3.073-3.375 6.781-3.375 3 0 4.761 3.334 6.761 3.334 3.208 0 0.792-11.5-3.5-11.5zM4.756 8.729c-1.242 0-2.25-1.008-2.25-2.25s1.008-2.25 2.25-2.25 2.25 1.008 2.25 2.25c0 1.242-1.007 2.25-2.25 2.25zM10.726 7.479c-0.277 0-0.5-0.223-0.5-0.5s0.223-0.5 0.5-0.5 0.5 0.223 0.5 0.5-0.223 0.5-0.5 0.5zM12.257 8.979c-0.277 0-0.5-0.223-0.5-0.5s0.223-0.5 0.5-0.5 0.5 0.223 0.5 0.5-0.224 0.5-0.5 0.5zM12.257 5.979c-0.277 0-0.5-0.223-0.5-0.5s0.223-0.5 0.5-0.5 0.5 0.223 0.5 0.5-0.224 0.5-0.5 0.5zM13.757 7.479c-0.277 0-0.5-0.223-0.5-0.5s0.223-0.5 0.5-0.5 0.5 0.223 0.5 0.5-0.224 0.5-0.5 0.5zM4.756 5.229c-0.69 0-1.25 0.559-1.25 1.25s0.56 1.25 1.25 1.25c0.691 0 1.25-0.559 1.25-1.25s-0.559-1.25-1.25-1.25z"></path>
</symbol>
<symbol id="pd-folder" viewBox="0 0 17 16">
<title>folder</title>
<path d="M4.215 4.577h10.479c1.079 0 1.079-1.119 0.042-1.119h-7.243c-0.415 0-0.622-0.622-0.622-0.622s-0.29-0.913-0.872-0.913h-5.394c-0.788 0-0.581 0.913-0.581 0.913s1.204 10.235 1.286 10.857 0.726 0.806 0.726 0.806l1.411-9.052c0.104-0.663 0.56-0.85 0.768-0.871zM16.829 4.971h-12.281c-0.367 0-0.664 0.297-0.664 0.663l-1.286 8.2c0 0.367 0.297 0.664 0.664 0.664h12.281c0.366 0 0.664-0.297 0.664-0.664l1.286-8.2c0-0.367-0.297-0.663-0.664-0.663z"></path>
</symbol>
<symbol id="pd-basket" viewBox="0 0 16 16">
<title>basket</title>
<path d="M0 7v-1.5h1.875l3.765-3.766c-0.025-0.075-0.046-0.151-0.046-0.234 0-0.414 0.335-0.75 0.75-0.75s0.75 0.336 0.75 0.75c0 0.414-0.336 0.75-0.75 0.75-0.056 0-0.104-0.021-0.156-0.031l-3.282 3.281h9.677l-3.262-3.289c-0.065 0.018-0.126 0.039-0.195 0.039-0.414 0-0.75-0.336-0.75-0.75s0.336-0.75 0.75-0.75 0.75 0.336 0.75 0.75c0 0.077-0.023 0.147-0.044 0.216l3.784 3.784h1.886v1.5h-15.5zM12.434 14.451c-0.146 0.586-0.553 0.553-0.553 0.553l-8.297 0.016c-0.423 0-0.537-0.536-0.537-0.536l-2.193-6.978 13.787-0.013-2.207 6.957zM5 8.5h-0.5v2.5h0.5v-2.5zM5 11.5h-0.5v2.5h0.5v-2.5zM6 8.5h-0.5v2.5h0.5v-2.5zM6 11.5h-0.5v2.5h0.5v-2.5zM7 8.5h-0.5v2.5h0.5v-2.5zM7 11.5h-0.5v2.5h0.5v-2.5zM8 8.5h-0.5v2.5h0.5v-2.5zM8 11.5h-0.5v2.5h0.5v-2.5zM9 8.5h-0.5v2.5h0.5v-2.5zM9 11.5h-0.5v2.5h0.5v-2.5zM10 8.5h-0.5v2.5h0.5v-2.5zM10 11.5h-0.5v2.5h0.5v-2.5zM11 8.5h-0.5v2.5h0.5v-2.5zM11 11.5h-0.5v2.5h0.5v-2.5z"></path>
</symbol>
<symbol id="pd-download2" viewBox="0 0 18 16">
<title>download2</title>
<path d="M14.713 7.768c0 0 0.324-4.372-3.681-4.87-3.433-0.35-4.478 2.84-4.478 2.84s-1.034-0.994-2.436-0.182c-1.255 0.775-1.034 2.194-1.034 2.194s-2.788 0.542-2.788 3.384c0.063 2.838 3.027 2.867 3.027 2.867h5.676l-2.5-2.5h1.5v-3h2v3h1.5l-2.5 2.5h5.233c0 0 2.76 0.003 3.148-2.697 0.184-2.953-2.668-3.535-2.668-3.535z"></path>
</symbol>
<symbol id="pd-location" viewBox="0 0 16 16">
<title>location</title>
<path d="M5.582 5.777c0-1.327 1.083-2.404 2.418-2.404s2.418 1.076 2.418 2.404-1.083 2.403-2.418 2.403-2.418-1.076-2.418-2.403zM3.889 6.077c0 1.005 1.227 3.125 1.227 3.125l2.885 4.807 2.719-4.806c0 0 1.393-2.135 1.393-3.125 0-2.256-1.841-4.085-4.112-4.085s-4.112 1.829-4.112 4.085z"></path>
</symbol>
<symbol id="pd-chart2" viewBox="0 0 16 16">
<title>chart2</title>
<path d="M1.994 2h-0.494v12h13v-0.482l-12.498-0.025-0.008-11.493zM5.5 2.5c0-0.276-0.224-0.5-0.5-0.5h-1.5c-0.276 0-0.5 0.224-0.5 0.5v10h2.5v-10zM8.5 5.5c0-0.277-0.224-0.5-0.5-0.5h-1.5c-0.277 0-0.5 0.223-0.5 0.5v7h2.5v-7zM11.5 8.5c0-0.277-0.224-0.5-0.5-0.5h-1.5c-0.277 0-0.5 0.223-0.5 0.5v4h2.5v-4zM14 11h-1.5c-0.277 0-0.5 0.223-0.5 0.5v1h2.5v-1c0-0.277-0.224-0.5-0.5-0.5z"></path>
</symbol>
<symbol id="pd-chart" viewBox="0 0 16 16">
<title>chart</title>
<path d="M8.499 7.471c0 0 0.048-5.993 0-5.993 3.448 0 5.993 2.545 5.993 5.993 0 0.019-5.993 0-5.993 0zM13.993 8.701c0 3.585-2.907 6.492-6.492 6.492s-6.492-2.907-6.492-6.492c0-3.586 2.906-6.492 6.492-6.492 0.168 0 0.334 0.012 0.499 0.025v5.737h5.954c0.025 0.23 0.039 0.494 0.039 0.73zM13.463 8.501h-5.962v-5.793c-3.31 0-5.993 2.683-5.993 5.994s2.683 5.992 5.993 5.992 5.993-2.683 5.993-5.992c0-0.645-0.031-0.2-0.031-0.2z"></path>
</symbol>
<symbol id="pd-upload2" viewBox="0 0 18 16">
<title>upload2</title>
<path d="M14.713 7.768c0 0 0.325-4.372-3.681-4.87-3.433-0.35-4.478 2.84-4.478 2.84s-1.034-0.994-2.436-0.182c-1.256 0.775-1.034 2.194-1.034 2.194s-2.788 0.542-2.788 3.384c0.062 2.838 3.027 2.867 3.027 2.867h4.676v-3h-1.5l2.5-2.5 2.5 2.5h-1.5v3h4.233c0 0 2.76 0.003 3.148-2.697 0.184-2.953-2.668-3.535-2.668-3.535z"></path>
</symbol>
<symbol id="pd-cloud" viewBox="0 0 18 16">
<title>cloud</title>
<path d="M13.937 14c0 0 2.76 0.003 3.147-2.697 0.184-2.953-2.668-3.535-2.668-3.535s0.325-4.372-3.681-4.87c-3.433-0.35-4.477 2.84-4.477 2.84s-1.034-0.994-2.437-0.182c-1.256 0.775-1.034 2.194-1.034 2.194s-2.788 0.542-2.788 3.384c0.063 2.838 3.029 2.867 3.029 2.867"></path>
</symbol>
<symbol id="pd-sitemap" viewBox="0 0 16 16">
<title>sitemap</title>
<path d="M12 13.5h-1.5c-0.277 0-0.5-0.223-0.5-0.5v-1c0-0.277 0.223-0.5 0.5-0.5h1v-3h-3.5v3h0.5c0.276 0 0.5 0.223 0.5 0.5v1c0 0.277-0.224 0.5-0.5 0.5h-1.5c-0.277 0-0.5-0.223-0.5-0.5v-1c0-0.277 0.223-0.5 0.5-0.5h0.5v-3h-3.5v3h1c0.276 0 0.5 0.223 0.5 0.5v1c0 0.277-0.224 0.5-0.5 0.5h-1.5c-0.276 0-0.5-0.223-0.5-0.5v-1c0-0.277 0.224-0.5 0.5-0.5v-3.5h4v-3.5h-0.5c-0.277 0-0.5-0.224-0.5-0.5v-1c0-0.276 0.223-0.5 0.5-0.5h1.5c0.276 0 0.5 0.224 0.5 0.5v1c0 0.276-0.224 0.5-0.5 0.5h-0.5v3.5h4v3.5c0.276 0 0.5 0.223 0.5 0.5v1c0 0.277-0.224 0.5-0.5 0.5z"></path>
</symbol>
<symbol id="pd-position" viewBox="0 0 16 16">
<title>position</title>
<path d="M8.25 12.223v-0.498c1.676 0.050 2.997 0.587 2.997 1.244 0 0.69-1.453 1.28-3.246 1.28s-3.246-0.591-3.246-1.28c0-0.656 1.321-1.194 2.996-1.244v0.498c-1.399 0.034-2.497 0.355-2.497 0.745 0 0.414 1.229 0.812 2.747 0.812s2.746-0.398 2.746-0.812c-0.001-0.39-1.097-0.71-2.497-0.745zM5.258 4.497c0-1.516 1.26-2.747 2.778-2.747s2.746 1.23 2.746 2.747c0 1.304-0.909 2.393-2.128 2.674l-0.654 6.609-0.657-6.628c-1.181-0.308-2.085-1.378-2.085-2.655zM8 3.762c0-0.414-0.335-0.749-0.749-0.749s-0.75 0.335-0.75 0.749c0 0.413 0.335 0.749 0.75 0.749s0.749-0.335 0.749-0.749z"></path>
</symbol>
<symbol id="pd-eye" viewBox="0 0 18 16">
<title>eye</title>
<path d="M8.581 2.171c-5.281 0-8.581 5.829-8.581 5.829s3.268 5.829 8.581 5.829c4.969 0 8.741-5.83 8.741-5.83s-3.741-5.83-8.741-5.83zM8.628 10.626c-1.447 0-2.619-1.172-2.619-2.619s1.173-2.62 2.619-2.62 2.62 1.173 2.62 2.62-1.173 2.619-2.62 2.619zM8.644 6.697c-0.72 0-1.303 0.584-1.303 1.304s0.583 1.303 1.303 1.303 1.303-0.584 1.303-1.303c0.001-0.72-0.583-1.303-1.303-1.303z"></path>
</symbol>
<symbol id="pd-cancel3" viewBox="0 0 16 16">
<title>cancel3</title>
<path d="M9.793 8.001l3.048 3.048c0.198 0.198 0.198 0.52 0 0.717l-1.075 1.075c-0.198 0.198-0.519 0.198-0.717 0l-3.049-3.048-3.049 3.048c-0.198 0.198-0.519 0.198-0.717 0l-1.076-1.075c-0.198-0.198-0.198-0.519 0-0.717l3.049-3.048-3.049-3.049c-0.198-0.198-0.198-0.519 0-0.718l1.076-1.075c0.198-0.198 0.519-0.198 0.717 0l3.048 3.048 3.048-3.049c0.198-0.198 0.519-0.198 0.717 0l1.075 1.076c0.198 0.198 0.198 0.519 0 0.718l-3.048 3.048z"></path>
</symbol>
<symbol id="pd-checkmark3" viewBox="0 0 16 16">
<title>checkmark3</title>
<path d="M14.499 4.266l-1.067-1.067c-0.197-0.196-0.515-0.196-0.711 0l-6.397 6.397-3.043-3.065c-0.196-0.197-0.514-0.197-0.712 0l-1.067 1.067c-0.197 0.197-0.197 0.515 0 0.711l4.462 4.492c0.197 0.197 0.515 0.197 0.712 0l7.824-7.824c0.197-0.196 0.197-0.515 0-0.712z"></path>
</symbol>
<symbol id="pd-wallet" viewBox="0 0 16 16">
<title>wallet</title>
<path d="M9 11c-0.552 0-1-0.448-1-1v-1c0-0.553 0.448-1 1-1h6v3h-6zM9.75 8.791c-0.414 0-0.75 0.336-0.75 0.75s0.336 0.75 0.75 0.75c0.415 0 0.75-0.335 0.75-0.75s-0.335-0.75-0.75-0.75zM7.5 9v1c0 0.828 0.672 1.5 1.5 1.5h5v2c0 0.828-0.671 1.5-1.5 1.5h-10.5c-0.828 0-1.5-0.672-1.5-1.5v-9.5c0-0.829 0.672-1.5 1.5-1.5h4.816l-1.175 0.49h-3.891c-0.414 0-0.75 0.336-0.75 0.75s0.336 0.75 0.75 0.75h12.25v3.011h-5c-0.828 0-1.5 0.671-1.5 1.5zM2.501 5.5h-1v1h0.5v-0.5h0.5v-0.5zM2.501 7h-1v1h0.52l-0.021-0.5 0.5 0.011v-0.511zM2.501 8.5h-1v1h0.51l-0.010-0.5h0.5v-0.5zM2.501 10h-1v1h0.51l-0.010-0.5 0.5 0.011v-0.511zM2.501 11.5h-1v1h0.5v-0.5h0.5v-0.5zM2.501 13h-1v1h0.51l-0.010-0.489h0.5v-0.511zM4.5 3.969l5.875-2.469 1.125 2.469h-7zM11.323 2.5h1.177c0.438 0 0.828 0.191 1.102 0.49h-2.040l-0.239-0.49z"></path>
</symbol>
<symbol id="pd-headphones" viewBox="0 0 16 16">
<title>headphones</title>
<path d="M12 14v-1h-0.012c0.005-0.083 0.012-0.165 0.012-0.25v-5.5c0-2.347-1.903-4.25-4.25-4.25s-4.25 1.903-4.25 4.25v5.5c0 0.085 0.008 0.167 0.013 0.25h-0.013v1c0 0-2.5-0.042-2.5-2.75 0-1.536 0.804-2.213 1.5-2.512v-1.487c0-2.9 2.351-5.25 5.25-5.25s5.25 2.35 5.25 5.25v1.487c0.697 0.3 1.5 0.976 1.5 2.512 0 2.708-2.5 2.75-2.5 2.75zM4.5 14h-0.5v-5.5h0.5v5.5zM11.5 14h-0.5v-5.5h0.5v5.5z"></path>
</symbol>
<symbol id="pd-time" viewBox="0 0 16 16">
<title>time</title>
<path d="M8 1.75c-3.591 0-6.5 2.91-6.5 6.5s2.909 6.5 6.5 6.5c3.59 0 6.5-2.91 6.5-6.5s-2.91-6.5-6.5-6.5zM7.947 13.514c-2.899 0-5.25-2.351-5.25-5.25s2.351-5.25 5.25-5.25c2.899 0 5.25 2.351 5.25 5.25s-2.351 5.25-5.25 5.25zM9.465 8.566h-1.49v-2.516c0-0.273-0.221-0.495-0.495-0.495s-0.495 0.221-0.495 0.495v3.011c0 0.274 0.221 0.495 0.495 0.495h1.985c0.274 0 0.495-0.221 0.495-0.495s-0.222-0.495-0.495-0.495z"></path>
</symbol>
<symbol id="pd-alarmclock" viewBox="0 0 16 16">
<title>alarmclock</title>
<path d="M13.614 7.388c-0.687-1.904-2.363-3.365-4.445-3.829 0.534-0.766 1.418-1.27 2.422-1.27 1.632 0 2.954 1.323 2.954 2.955 0 0.847-0.361 1.606-0.931 2.144zM7.932 2.4v1.858c2.835 0.115 5.1 2.444 5.1 5.307 0 1.196-0.399 2.296-1.065 3.184l1.232 2.134-1.024 0.591-1.055-1.827c-0.923 0.771-2.111 1.237-3.407 1.237-1.29 0-2.471-0.46-3.392-1.223l-1.083 1.873-1.023-0.591 1.258-2.178c-0.674-0.891-1.078-1.998-1.078-3.201 0-2.844 2.234-5.16 5.042-5.304v-1.861c-0.287-0.103-0.495-0.37-0.495-0.692 0-0.41 0.332-0.742 0.742-0.742s0.743 0.333 0.743 0.742c-0.001 0.322-0.209 0.59-0.495 0.692zM3.576 9.565c0 2.285 1.852 4.136 4.136 4.136s4.136-1.851 4.136-4.136c0-2.284-1.852-4.136-4.136-4.136s-4.136 1.852-4.136 4.136zM8.953 10.459h-1.484c-0.274 0-0.495-0.222-0.495-0.495v-1.979c0-0.274 0.221-0.495 0.495-0.495s0.495 0.221 0.495 0.495v1.485h0.99c0.274 0 0.495 0.222 0.495 0.495s-0.221 0.495-0.495 0.495zM1.886 7.388c-0.571-0.539-0.932-1.297-0.932-2.144 0-1.632 1.323-2.955 2.955-2.955 1.004 0 1.888 0.503 2.423 1.269-2.083 0.465-3.759 1.926-4.446 3.829z"></path>
</symbol>
<symbol id="pd-watch" viewBox="0 0 16 16">
<title>watch</title>
<path d="M3.501 7.5h0.5v0.5h-0.5v1.5h1v-0.5h-0.5v-0.5h0.5v-1.5h-1v0.5zM6.501 9h0.5v-0.5h-0.5v0.5zM5 7.5h0.5v0.5h-0.5v0.5h0.5v0.5h-0.5v0.5h1v-2.5h-1v0.5zM6.501 8h0.5v-0.5h-0.5v0.5zM7.501 9.5h1.5v-2.5h-1.5v2.5zM8.001 7.5h0.5v1.5h-0.5v-1.5zM10.001 7h-0.5v1.5h1v1h0.5v-2.5h-0.5v1h-0.5v-1zM14.001 7h-0.501l0.002-2.014-2.815-2.981-0.687-0.001v-1.004h-5.5v0.999l-0.702-0-2.793 2.939-0.007 6.108 2.784 2.918 0.719 0.001v1.036h5.5v-1.030l0.671 0.001 2.825-2.94 0.002-1.53h0.503c0.277 0 0.5-0.223 0.5-0.5v-1.5c0-0.276-0.223-0.5-0.5-0.5zM12.479 10.647l-2.251 2.367-5.998-0.005-2.212-2.345 0.006-5.343 2.189-2.337 6.061 0.006 2.211 2.376-0.006 5.28z"></path>
</symbol>
<symbol id="pd-cassette" viewBox="0 0 16 16">
<title>cassette</title>
<path d="M14.008 14.008h-1.033l-1.001-3.004h-8.48l-1.002 3.004h-1.002c-0.829 0-1.502-0.673-1.502-1.502v-9.012c0-0.829 0.673-1.502 1.502-1.502h12.517c0.829 0 1.502 0.672 1.502 1.502v9.012c0.001 0.829-0.672 1.502-1.502 1.502zM13.977 3.494h-12.486v6.508h12.486v-6.508zM13.007 9.001h-10.514v-4.505h10.514v4.505zM4.744 5.489c-0.691 0-1.252 0.561-1.252 1.252s0.56 1.252 1.252 1.252 1.252-0.561 1.252-1.252-0.561-1.252-1.252-1.252zM8.47 6.248h-1.47v1.001h1.47v-1.001zM10.757 5.489c-0.691 0-1.252 0.561-1.252 1.252s0.56 1.252 1.252 1.252c0.691 0 1.252-0.561 1.252-1.252s-0.56-1.252-1.252-1.252zM10.723 7.249c-0.277 0-0.501-0.224-0.501-0.5s0.224-0.5 0.501-0.5 0.501 0.224 0.501 0.5c0 0.277-0.225 0.5-0.501 0.5zM4.777 7.249c-0.277 0-0.5-0.224-0.5-0.5s0.224-0.5 0.5-0.5c0.277 0 0.501 0.224 0.501 0.5s-0.224 0.5-0.501 0.5zM11.63 11.505l0.877 2.482h-9.544l0.845-2.482h7.823zM11.005 13.007h0.501v-0.501h-0.501v0.501zM10.003 13.007h0.501v-0.501h-0.501v0.501zM6.498 13.007h2.472v-0.501h-2.472v0.501zM4.997 13.007h0.5v-0.501h-0.5v0.501zM3.995 13.007h0.5v-0.501h-0.5v0.501z"></path>
</symbol>
<symbol id="pd-pacman" viewBox="0 0 16 16">
<title>pacman</title>
<path d="M8.681 8.219l4.17 4.242c-1.063 0.954-2.463 1.54-4.003 1.54-3.313 0-6-2.687-6-6s2.687-6 6-6c1.69 0 3.214 0.701 4.305 1.825l-4.471 4.394zM9.087 3.979c-0.414 0-0.749 0.336-0.749 0.75s0.335 0.75 0.749 0.75c0.415 0 0.751-0.335 0.751-0.75s-0.336-0.75-0.751-0.75z"></path>
</symbol>
<symbol id="pd-pictures" viewBox="0 0 16 16">
<title>pictures</title>
<path d="M13.302 14.793l-1.312-0.36-0.003-3.629 1.255 0.353 1.809-6.755-9.166-2.456-0.604 2.253h-1.034l0.931-3.476 11.097 2.973-2.973 11.097zM11.52 16h-11.52v-11.489h11.52v11.489zM10.521 5.511h-9.521v6.992h9.521v-6.992zM3.925 10.496l1.141-1.846 1.141 1.15 1.569-2.364 1.642 4.067h-7.278l0.928-1.855 0.857 0.847zM3.242 8.543c-0.414 0-0.75-0.335-0.75-0.749s0.336-0.749 0.75-0.749 0.749 0.335 0.749 0.749-0.335 0.749-0.749 0.749z"></path>
</symbol>
<symbol id="pd-suitcase2" viewBox="0 0 16 16">
<title>suitcase2</title>
<path d="M13.5 14.5h-11.5c-0.552 0-1-0.448-1-1v-6c0 0 2.611 1.342 5 1.892v0.608c0 0.277 0.223 0.5 0.5 0.5h2.5c0.276 0 0.5-0.223 0.5-0.5v-0.608c2.389-0.55 5-1.892 5-1.892v6c0 0.552-0.448 1-1 1zM8.5 8.5c0.276 0 0.5 0.223 0.5 0.5v0.5c0 0.277-0.224 0.5-0.5 0.5h-1.5c-0.277 0-0.5-0.223-0.5-0.5v-0.5c0-0.277 0.223-0.5 0.5-0.5h1.5zM9.5 8.5c0-0.277-0.224-0.5-0.5-0.5h-2.5c-0.277 0-0.5 0.223-0.5 0.5v0.448c-2.389-0.566-5-1.948-5-1.948v-2c0-0.552 0.448-1 1-1h3v-1c0-0.552 0.448-1 1-1h3.5c0.552 0 1 0.448 1 1v1h3c0.552 0 1 0.448 1 1v2c0 0-2.611 1.382-5 1.948v-0.448zM9.5 3.5c0-0.276-0.224-0.5-0.5-0.5h-2.5c-0.277 0-0.5 0.224-0.5 0.5s0 0.5 0 0.5h3.5c0 0 0-0.224 0-0.5z"></path>
</symbol>
<symbol id="pd-health" viewBox="0 0 16 16">
<title>health</title>
<path d="M13.5 14.015h-1v0.969h-2v-0.969h-5.5v0.969h-2v-0.969h-1c-0.552 0-1-0.448-1-1v-8.5c0-0.553 0.448-1 1-1h11.5c0.552 0 1 0.448 1 1v8.5c0 0.553-0.448 1-1 1zM10.499 8.015h-1.999v-2h-1.5v2h-2v1.5h2v2h1.5v-2h1.999v-1.5zM9.5 2.005h-3v1.010h-1v-0.49h0.5v-1.51h3.979v1.5h0.521v0.5h-1v-1.010z"></path>
</symbol>
<symbol id="pd-warning" viewBox="0 0 16 16">
<title>warning</title>
<path d="M15.277 12.61l-6.259-10.718c-0.522-0.522-1.369-0.522-1.891 0l-6.26 10.718c-0.522 0.521-0.522 1.368 0 1.89h14.41c0.523-0.523 0.523-1.369 0.001-1.89zM7.496 5.739c0-0.415 0.336-0.75 0.75-0.75s0.75 0.335 0.75 0.75v3.5c0 0.414-0.336 0.75-0.75 0.75s-0.75-0.336-0.75-0.75v-3.5zM8.251 12.493c-0.414 0-0.75-0.335-0.75-0.75s0.336-0.75 0.75-0.75 0.75 0.336 0.75 0.75c0 0.415-0.336 0.75-0.75 0.75z"></path>
</symbol>
<symbol id="pd-cogs" viewBox="0 0 16 16">
<title>cogs</title>
<path d="M10.634 11.020l0.354-0.354c0.392-0.392 0.392-1.027 0-1.418l-0.612-0.611c0.197-0.343 0.351-0.712 0.459-1.101h0.662c0.553 0 1.002-0.449 1.002-1.002v-0.501c0-0.553-0.448-1.003-1.002-1.003h-0.654c-0.104-0.386-0.252-0.752-0.444-1.093l0.588-0.588c0.392-0.392 0.392-1.026 0-1.418l-0.354-0.354c-0.392-0.391-1.027-0.391-1.418 0l-0.576 0.576c-0.352-0.206-0.734-0.365-1.136-0.476v-0.673c-0-0.554-0.449-1.002-1.003-1.002h-0.501c-0.553 0-1.003 0.449-1.003 1.002v0.673c-0.402 0.11-0.783 0.27-1.136 0.476l-0.577-0.577c-0.391-0.391-1.026-0.391-1.417 0l-0.355 0.354c-0.391 0.392-0.391 1.026 0 1.418l0.588 0.588c-0.192 0.341-0.34 0.707-0.444 1.093h-0.653c-0.554-0-1.002 0.449-1.002 1.003v0.501c0 0.553 0.449 1.003 1.002 1.003h0.661c0.108 0.389 0.262 0.758 0.46 1.101l-0.612 0.611c-0.391 0.392-0.391 1.027 0 1.418l0.355 0.354c0.391 0.392 1.027 0.392 1.418 0l0.615-0.616c0.342 0.194 0.71 0.346 1.097 0.451v0.642c0 0.553 0.449 1.002 1.003 1.002h0.501c0.553 0 1.003-0.449 1.003-1.002v-0.642c0.388-0.105 0.756-0.258 1.097-0.451l0.616 0.616c0.393 0.391 1.027 0.391 1.419-0.001zM6.25 9.053c-1.522 0-2.757-1.234-2.757-2.757s1.235-2.757 2.757-2.757 2.757 1.235 2.757 2.757c0 1.523-1.234 2.757-2.757 2.757zM6.25 5.013c-0.692 0-1.253 0.561-1.253 1.253s0.561 1.253 1.253 1.253c0.692 0 1.253-0.561 1.253-1.253s-0.561-1.253-1.253-1.253zM12.531 14.431c-0.336 0-0.608 0.272-0.608 0.608s0.272 0.607 0.608 0.607c0.335 0 0.608-0.272 0.608-0.607s-0.273-0.608-0.608-0.608zM15.076 14.438h-0.317c-0.050-0.187-0.123-0.365-0.216-0.53l0.285-0.285c0.19-0.19 0.19-0.498 0-0.688l-0.172-0.172c-0.19-0.19-0.498-0.19-0.688 0l-0.28 0.28c-0.171-0.1-0.356-0.177-0.551-0.23v-0.326c0-0.268-0.218-0.486-0.486-0.486h-0.243c-0.268 0-0.486 0.218-0.486 0.486v0.326c-0.195 0.053-0.38 0.131-0.551 0.23l-0.28-0.28c-0.19-0.19-0.498-0.19-0.688 0l-0.172 0.172c-0.19 0.19-0.19 0.498 0 0.688l0.285 0.285c-0.094 0.165-0.165 0.344-0.216 0.53h-0.317c-0.268 0-0.486 0.218-0.486 0.486v0.243c0 0.268 0.218 0.486 0.486 0.486h0.321c0.052 0.188 0.127 0.367 0.223 0.534l-0.296 0.297c-0.19 0.19-0.19 0.497 0 0.688l0.172 0.172c0.19 0.189 0.498 0.189 0.688 0l0.299-0.299c0.166 0.094 0.344 0.168 0.532 0.219v0.311c0 0.268 0.218 0.486 0.486 0.486h0.243c0.268 0 0.486-0.218 0.486-0.486v-0.311c0.188-0.051 0.366-0.125 0.531-0.219l0.299 0.299c0.19 0.189 0.498 0.189 0.688 0l0.172-0.172c0.19-0.191 0.19-0.498 0-0.688l-0.296-0.297c0.095-0.166 0.171-0.345 0.223-0.534h0.321c0.268 0 0.486-0.218 0.486-0.486v-0.243c0.002-0.269-0.216-0.486-0.485-0.486zM12.531 16.391c-0.739 0-1.337-0.598-1.337-1.338s0.598-1.337 1.337-1.337 1.337 0.598 1.337 1.337c0 0.739-0.598 1.338-1.337 1.338z"></path>
</symbol>
<symbol id="pd-cog" viewBox="0 0 16 16">
<title>cog</title>
<path d="M12.998 9.534h-0.662c-0.107 0.389-0.261 0.759-0.459 1.101l0.612 0.611c0.392 0.392 0.392 1.027 0 1.418l-0.354 0.354c-0.392 0.392-1.027 0.392-1.418 0l-0.616-0.616c-0.341 0.194-0.71 0.346-1.097 0.451v0.642c0 0.553-0.448 1.002-1.002 1.002h-0.501c-0.553 0-1.003-0.448-1.003-1.002v-0.642c-0.387-0.105-0.755-0.258-1.097-0.451l-0.615 0.616c-0.391 0.392-1.026 0.392-1.417 0l-0.355-0.354c-0.392-0.392-0.392-1.027 0-1.418l0.612-0.611c-0.197-0.343-0.352-0.712-0.46-1.101h-0.662c-0.554 0-1.002-0.448-1.002-1.002v-0.502c0-0.553 0.449-1.002 1.002-1.002h0.654c0.103-0.386 0.252-0.752 0.444-1.093l-0.588-0.588c-0.392-0.391-0.392-1.026 0-1.418l0.354-0.354c0.392-0.392 1.027-0.392 1.418 0l0.577 0.577c0.353-0.205 0.734-0.365 1.136-0.475v-0.674c0-0.554 0.45-1.002 1.003-1.002h0.501c0.553 0 1.002 0.449 1.002 1.002v0.673c0.403 0.11 0.784 0.27 1.136 0.476l0.576-0.577c0.392-0.392 1.027-0.392 1.418 0l0.354 0.354c0.392 0.391 0.392 1.027 0 1.418l-0.588 0.588c0.192 0.341 0.34 0.707 0.444 1.093h0.654c0.553 0 1.002 0.449 1.002 1.003v0.502c-0.001 0.553-0.449 1.002-1.003 1.002zM7.75 5.54c-1.522 0-2.757 1.234-2.757 2.757s1.234 2.757 2.757 2.757 2.757-1.235 2.757-2.757-1.235-2.757-2.757-2.757zM7.75 9.518c-0.692 0-1.253-0.56-1.253-1.253s0.561-1.253 1.253-1.253 1.253 0.561 1.253 1.253c0 0.693-0.561 1.253-1.253 1.253z"></path>
</symbol>
<symbol id="pd-notice2" viewBox="0 0 16 16">
<title>notice2</title>
<path d="M7.75 1.5c-3.728 0-6.75 3.022-6.75 6.75s3.022 6.75 6.75 6.75 6.75-3.022 6.75-6.75-3.022-6.75-6.75-6.75zM7.75 13.5c-2.899 0-5.25-2.351-5.25-5.25s2.351-5.25 5.25-5.25 5.25 2.351 5.25 5.25-2.351 5.25-5.25 5.25zM7.75 5c-0.414 0-0.75 0.335-0.75 0.75v2.531c0 0.414 0.336 0.75 0.75 0.75s0.75-0.336 0.75-0.75v-2.531c0-0.415-0.336-0.75-0.75-0.75zM7.75 10c-0.414 0-0.75 0.336-0.75 0.75s0.336 0.75 0.75 0.75 0.75-0.336 0.75-0.75-0.336-0.75-0.75-0.75z"></path>
</symbol>
<symbol id="pd-notice" viewBox="0 0 16 16">
<title>notice</title>
<path d="M7.75 1.75c-3.59 0-6.5 2.91-6.5 6.5s2.91 6.5 6.5 6.5 6.5-2.91 6.5-6.5-2.91-6.5-6.5-6.5zM7.75 11.938c-0.415 0-0.75-0.336-0.75-0.75s0.335-0.75 0.75-0.75c0.414 0 0.75 0.336 0.75 0.75s-0.336 0.75-0.75 0.75zM8.5 8.688c0 0.414-0.336 0.75-0.75 0.75s-0.75-0.336-0.75-0.75v-3.5c0-0.415 0.335-0.75 0.75-0.75s0.75 0.335 0.75 0.75v3.5z"></path>
</symbol>
<symbol id="pd-minus2" viewBox="0 0 16 16">
<title>minus2</title>
<path d="M8 1.5c-3.59 0-6.5 2.91-6.5 6.5s2.91 6.5 6.5 6.5 6.5-2.91 6.5-6.5-2.91-6.5-6.5-6.5zM8 13c-2.761 0-5-2.239-5-5s2.239-5 5-5c2.761 0 5 2.239 5 5s-2.239 5-5 5zM9.869 7.5h-4c-0.277 0-0.5 0.224-0.5 0.5s0.223 0.5 0.5 0.5h4c0.277 0 0.5-0.223 0.5-0.5s-0.223-0.5-0.5-0.5z"></path>
</symbol>
<symbol id="pd-minus" viewBox="0 0 16 16">
<title>minus</title>
<path d="M7.75 1.75c-3.59 0-6.5 2.91-6.5 6.5s2.91 6.5 6.5 6.5c3.59 0 6.5-2.91 6.5-6.5s-2.91-6.5-6.5-6.5zM11 8.438c0 0.277-0.224 0.5-0.5 0.5h-5.5c-0.277 0-0.5-0.223-0.5-0.5v-0.5c0-0.276 0.223-0.5 0.5-0.5h5.5c0.276 0 0.5 0.224 0.5 0.5v0.5z"></path>
</symbol>
<symbol id="pd-plus2" viewBox="0 0 16 16">
<title>plus2</title>
<path d="M8 14.5c-3.59 0-6.5-2.91-6.5-6.5s2.91-6.5 6.5-6.5 6.5 2.91 6.5 6.5-2.91 6.5-6.5 6.5zM8 3c-2.761 0-5 2.239-5 5s2.239 5 5 5c2.761 0 5-2.239 5-5s-2.239-5-5-5zM9.994 8.5h-1.5v1.5c0 0.277-0.224 0.5-0.5 0.5s-0.5-0.223-0.5-0.5v-1.5h-1.5c-0.277 0-0.5-0.224-0.5-0.5s0.223-0.5 0.5-0.5h1.5v-1.5c0-0.277 0.223-0.5 0.5-0.5s0.5 0.223 0.5 0.5v1.5h1.5c0.276 0 0.5 0.224 0.5 0.5s-0.224 0.5-0.5 0.5z"></path>
</symbol>
<symbol id="pd-plus" viewBox="0 0 16 16">
<title>plus</title>
<path d="M7.75 14.75c-3.59 0-6.5-2.91-6.5-6.5s2.91-6.5 6.5-6.5 6.5 2.91 6.5 6.5-2.91 6.5-6.5 6.5zM10.969 7.969c0-0.276-0.224-0.5-0.5-0.5h-2v-2c0-0.276-0.223-0.5-0.5-0.5h-0.5c-0.277 0-0.5 0.224-0.5 0.5v2h-2c-0.277 0-0.5 0.224-0.5 0.5v0.5c0 0.277 0.223 0.5 0.5 0.5h2v2c0 0.277 0.223 0.5 0.5 0.5h0.5c0.277 0 0.5-0.223 0.5-0.5v-2h2c0.276 0 0.5-0.223 0.5-0.5v-0.5z"></path>
</symbol>
<symbol id="pd-cancel2" viewBox="0 0 16 16">
<title>cancel2</title>
<path d="M8 14.5c-3.59 0-6.5-2.91-6.5-6.5s2.91-6.5 6.5-6.5 6.5 2.91 6.5 6.5-2.91 6.5-6.5 6.5zM8 3c-2.761 0-5 2.239-5 5s2.239 5 5 5c2.761 0 5-2.239 5-5s-2.239-5-5-5zM10.268 9.768l-0.507 0.507c-0.093 0.093-0.244 0.093-0.338 0l-1.435-1.435-1.435 1.435c-0.093 0.093-0.244 0.093-0.338 0l-0.507-0.507c-0.093-0.093-0.093-0.244 0-0.338l1.436-1.434-1.436-1.435c-0.093-0.093-0.093-0.245 0-0.338l0.507-0.506c0.093-0.093 0.244-0.093 0.338 0l1.435 1.435 1.435-1.435c0.094-0.093 0.245-0.093 0.338 0l0.507 0.506c0.093 0.093 0.093 0.245 0 0.338l-1.435 1.435 1.435 1.434c0.093 0.094 0.093 0.245 0 0.338z"></path>
</symbol>
<symbol id="pd-cancel" viewBox="0 0 16 16">
<title>cancel</title>
<path d="M8 14.5c-3.59 0-6.5-2.91-6.5-6.5s2.91-6.5 6.5-6.5 6.5 2.91 6.5 6.5-2.91 6.5-6.5 6.5zM10.98 6.104c0.122-0.122 0.122-0.321 0-0.442l-0.664-0.663c-0.122-0.122-0.321-0.122-0.443 0l-1.88 1.88-1.88-1.88c-0.122-0.122-0.321-0.122-0.442 0l-0.664 0.663c-0.122 0.122-0.122 0.321 0 0.442l1.881 1.881-1.881 1.88c-0.122 0.122-0.122 0.32 0 0.443l0.664 0.664c0.122 0.122 0.321 0.122 0.442 0l1.88-1.881 1.88 1.881c0.122 0.122 0.32 0.122 0.443 0l0.664-0.664c0.122-0.122 0.122-0.321 0-0.443l-1.881-1.88 1.881-1.881z"></path>
</symbol>
<symbol id="pd-checkmark2" viewBox="0 0 16 16">
<title>checkmark2</title>
<path d="M10.91 6.515l-0.501-0.501c-0.092-0.093-0.242-0.093-0.334 0l-3.007 3.006-1.429-1.441c-0.093-0.093-0.242-0.093-0.335 0l-0.501 0.501c-0.093 0.092-0.093 0.242 0 0.334l2.096 2.111c0.093 0.092 0.242 0.092 0.334 0l3.677-3.677c0.093-0.093 0.093-0.242 0-0.335zM8 1.5c-3.59 0-6.5 2.91-6.5 6.5s2.91 6.5 6.5 6.5 6.5-2.91 6.5-6.5-2.91-6.5-6.5-6.5zM8 13c-2.761 0-5-2.239-5-5s2.239-5 5-5c2.761 0 5 2.239 5 5s-2.239 5-5 5z"></path>
</symbol>
<symbol id="pd-checkmark" viewBox="0 0 16 16">
<title>checkmark</title>
<path d="M8 1.5c-3.59 0-6.5 2.91-6.5 6.5s2.91 6.5 6.5 6.5 6.5-2.91 6.5-6.5-2.91-6.5-6.5-6.5zM11.629 6.154l-4.743 4.743c-0.119 0.118-0.311 0.118-0.431 0l-0.096-0.095-0 0.001-2.61-2.628c-0.119-0.119-0.119-0.312 0-0.431l0.647-0.646c0.119-0.119 0.312-0.119 0.431 0l1.845 1.858 3.878-3.878c0.119-0.119 0.312-0.119 0.431 0l0.647 0.647c0.12 0.119 0.12 0.311 0.001 0.431z"></path>
</symbol>
<symbol id="pd-icecream" viewBox="0 0 16 16">
<title>icecream</title>
<path d="M10.402 5.371c0.724-1.81-0.895-2.108-0.895-2.087 0.511-1.278-0.511-2.13-1.448-2.13s-0.894 0.426-0.894 0.426 0.511-0.107 0.511 0.298c0 0.405-0.469 0.384-0.937 0.852-0.469 0.469-0.245 0.405-0.277 0.405 0.974-0.064 1.544 0.942 2.62 0.575-1.065 0.533-1.321-0.314-2.47-0.357-0.149 0-1.001-0.165-1.001 1.464 1.246 0.144 1.789 1.001 3.471 0.809-1.896 0.702-4.27-2.204-4.6 0.979 0 0.681 0.511 1.024 0.511 1.024s5.899 0 5.879 0c1.171-0.511 0.597-2.366-0.469-2.26zM8.036 15.5l2.664-7.535h-5.386l2.723 7.535z"></path>
</symbol>
<symbol id="pd-mug" viewBox="0 0 16 16">
<title>mug</title>
<path d="M12.88 12.502h-1.362v1.082c0 0.773-0.689 1.399-1.462 1.399h-5.154c-0.773 0-1.399-0.626-1.399-1.399v-7.55h1.499v7.452h0.994l0.001-7.452c0.267 0.192 0.667 0.335 1.004 0.412v7.042h0.994v-7.013c0.373-0.061 0.714-0.202 1.008-0.404v7.416h0.994v-7.453h2.883c0.618 0 1.12 0.501 1.12 1.119v4.229c0.001 0.618-0.501 1.12-1.119 1.12zM12.995 7.005h-1.477v4.492h1.477v-4.492zM10.611 5.571c-0.489 0-0.931-0.196-1.258-0.511-0.406 0.574-1.071 0.951-1.827 0.951-0.729 0-1.369-0.354-1.779-0.892-0.324 0.3-0.754 0.487-1.23 0.487-0.877 0-1.609-0.622-1.781-1.448-0.267-0.175-0.444-0.476-0.444-0.819 0-0.541 0.438-0.979 0.979-0.979 0.040 0 0.079 0.007 0.117 0.011 0.303-0.24 0.679-0.393 1.095-0.401 0.186-0.553 0.704-0.954 1.321-0.954 0.474 0 0.892 0.238 1.146 0.599 0.184-0.050 0.375-0.081 0.575-0.081 0.209 0 0.408 0.035 0.599 0.089 0.252-0.366 0.674-0.607 1.152-0.607 0.604 0 1.113 0.384 1.309 0.919 0.008 0 0.015-0.002 0.024-0.002 1.005 0 1.819 0.815 1.819 1.819s-0.815 1.819-1.819 1.819z"></path>
</symbol>
<symbol id="pd-coffee" viewBox="0 0 16 16">
<title>coffee</title>
<path d="M14.992 7.774c-0.189-1.819-2.031-1.809-2.989-1.776 0.005-0.277 0.008-0.5 0.008-0.5l-11.014-0.003c0 0 0 1.507 0 1.545 0 2.141 1.223 3.992 3.005 4.904v0.534h5.009v-0.534c0.5-0.256 0.948-0.592 1.345-0.98 2.457-0.588 5.035-1.437 4.634-3.189zM11.125 10.033c0.562-0.863 0.893-1.887 0.893-2.994 0 0.008 0.001-0.014 0.001-0.058 0.893-0.029 1.877-0.119 2.101 0.77 0.224 0.978-1.409 1.774-2.995 2.282zM4.415 3.495c0 0.5-0.82 1.032-0.82 1.032s1.607-0.287 1.607-1.037-1.593-0.25-1.593-0.813 0.788-1.095 0.788-1.095-1.513 0.319-1.513 1.1 1.53 0.313 1.53 0.813zM6.915 3.995c0 0.5-0.82 1.032-0.82 1.032s1.607-0.287 1.607-1.037-1.593-0.25-1.593-0.813 0.788-1.095 0.788-1.095-1.513 0.319-1.513 1.099 1.531 0.313 1.531 0.813zM8.915 3.495c0 0.5-0.82 1.032-0.82 1.032s1.607-0.287 1.607-1.037-1.594-0.25-1.594-0.813 0.789-1.095 0.789-1.095-1.513 0.319-1.513 1.1 1.531 0.313 1.531 0.813zM0.967 12.964c0 0.691 2.462 1.25 5.5 1.25s5.5-0.559 5.5-1.25c0 0.014-11 0.014-11 0z"></path>
</symbol>
<symbol id="pd-drink2" viewBox="0 0 16 16">
<title>drink2</title>
<path d="M12.231 4.49h-8.985l0.009-0.967h0.718l1.52-1.498h4.554l1.489 1.498h0.718l-0.023 0.967zM8.518 3.025h-1.498v0.499h1.498v-0.499zM11.428 8.515h-1.688c-0.373-0.726-1.12-1.227-1.991-1.227s-1.619 0.502-1.99 1.227h-1.659l-0.323-3.494h7.987l-0.335 3.494zM6.522 9.513c0-0.689 0.559-1.248 1.248-1.248s1.247 0.559 1.247 1.248-0.559 1.248-1.248 1.248c-0.689 0-1.248-0.559-1.248-1.248zM7.749 11.78c0.897 0 1.665-0.53 2.025-1.29h1.466l-0.381 3.983h-6.208l-0.368-3.983h1.442c0.36 0.76 1.127 1.29 2.024 1.29z"></path>
</symbol>
<symbol id="pd-drink" viewBox="0 0 16 16">
<title>drink</title>
<path d="M11.527 4.453c0.278 0 0.504 0.226 0.504 0.504l-0.914 10.046c0 0.278-0.226 0.504-0.504 0.504h-5.229c-0.279 0-0.504-0.226-0.504-0.504l-0.913-10.046c0-0.279 0.225-0.504 0.504-0.504h4.505l0.533-2.718 2.42-1.242-0.174 0.649-1.796 0.9-0.469 2.411h2.036zM8.757 7.981h2.014l-0.567 6.519h-4.409l-0.567-6.519h3.014l0.63-3.024h-4.4l0.913 10.046h5.228l0.913-10.046h-2.141l-0.629 3.024z"></path>
</symbol>
<symbol id="pd-microphone3" viewBox="0 0 16 16">
<title>microphone3</title>
<path d="M8.2 12.968v1.496c1.496 0.081 2.652 0.575 2.652 1.037 0 0.011-6.134 0.011-6.134 0 0-0.444 1.071-0.925 2.486-1.031v-1.509c-1.807-0.259-3.201-1.799-3.201-3.677v-0.777h0.497v0.777c0 1.785 1.447 3.232 3.232 3.233h0.002c1.785-0.001 3.232-1.448 3.232-3.233v-0.777h0.529v0.777c-0.001 1.9-1.459 3.451-3.296 3.683zM7.75 11.977c-1.518 0-2.747-1.229-2.747-2.747v-1.239h2.248v-0.5h-2.248v-0.5h2.248v-0.499h-2.248v-0.5h2.248v-0.5h-2.248v-0.5h2.248v-0.5h-2.248v-0.791c0-1.517 1.229-2.716 2.747-2.716s2.747 1.198 2.747 2.716v0.791h-2.248v0.5h2.248v0.5h-2.248v0.5h2.248v0.5h-2.248v0.499h2.248v0.5h-2.248v0.5h2.248v1.239c0 1.518-1.23 2.747-2.747 2.747z"></path>
</symbol>
<symbol id="pd-film3" viewBox="0 0 16 16">
<title>film3</title>
<path d="M12 8.5c-0.553 0-1 0.447-1 1v2h-2.5v-7h5.5v4h-2zM9.5 5h-0.5v1h0.5v-1zM9.5 10h-0.5v1h0.5v-1zM10.5 5h-0.5v1h0.5v-1zM10.5 10h-0.5v1h0.5v-1zM11.5 5h-0.5v1h0.5v-1zM12.5 5h-0.5v1h0.5v-1zM13.5 5h-0.5v1h0.5v-1zM2 3h6.5v1h-6.5v-1zM8 4.5v7h-5.5v-7h5.5zM8.5 13h-6.5v-1h6.5v1z"></path>
</symbol>
<symbol id="pd-film" viewBox="0 0 16 16">
<title>film</title>
<path d="M15.168 13.223c-0.064-0.111-0.269-0.145-0.616-0.101-0.637 0.082-1.101-0.126-1.389-0.626-0.219-0.378-0.275-0.758-0.169-1.14s0.418-0.927 0.937-1.636l0.325-0.452c0.964-1.332 1.162-2.489 0.593-3.475-0.579-1.003-2.25-0.918-3.451-0.403-0.972-2.005-3.020-3.39-5.396-3.39-3.314 0-6 2.687-6 6s2.686 6 6 6c3.313 0 6-2.687 6-6 0-0.734-0.139-1.436-0.38-2.085 0.405-0.146 0.89-0.251 1.348-0.268 0.601-0.022 1.145 0.104 1.361 0.478 0.482 0.835 0.249 1.821-0.697 2.957l-0.194 0.233c-1.107 1.329-1.371 2.492-0.796 3.491 0.233 0.403 0.604 0.691 1.113 0.864s0.94 0.156 1.293-0.048c0.175-0.101 0.216-0.234 0.12-0.398zM3.25 9.281c-0.691 0-1.25-0.559-1.25-1.25s0.559-1.25 1.25-1.25 1.25 0.559 1.25 1.25c0 0.691-0.559 1.25-1.25 1.25zM6 12.031c-0.691 0-1.25-0.559-1.25-1.25s0.559-1.25 1.25-1.25 1.25 0.559 1.25 1.25-0.559 1.25-1.25 1.25zM5.51 8.031c0-0.276 0.224-0.5 0.5-0.5s0.5 0.223 0.5 0.5c0 0.277-0.224 0.5-0.5 0.5s-0.5-0.223-0.5-0.5zM6 6.531c-0.691 0-1.25-0.559-1.25-1.25s0.559-1.25 1.25-1.25 1.25 0.559 1.25 1.25c0 0.691-0.559 1.25-1.25 1.25zM8.75 9.281c-0.691 0-1.25-0.559-1.25-1.25s0.559-1.25 1.25-1.25 1.25 0.559 1.25 1.25c0 0.691-0.559 1.25-1.25 1.25z"></path>
</symbol>
<symbol id="pd-camera3" viewBox="0 0 16 16">
<title>camera3</title>
<path d="M13.5 8.524l-2.5-1.002v-2.004l2.5-1.002c0.277 0 0.5 0.224 0.5 0.501v3.006c0 0.277-0.223 0.501-0.5 0.501zM8.75 5.016c-1.242 0-2.25-1.010-2.25-2.255s1.008-2.255 2.25-2.255 2.25 1.010 2.25 2.255c0 1.245-1.008 2.255-2.25 2.255zM4.25 5.016c-1.242 0-2.25-1.010-2.25-2.255s1.008-2.255 2.25-2.255 2.25 1.010 2.25 2.255c0 1.245-1.008 2.255-2.25 2.255zM10.5 5.016v4.509h-2.791c-0.026 0.416-0.208 0.774-0.479 0.977h0.282l1.995 4.498h-0.497l-0.665-1.5h-1.33v2.499h-0.498v-2.499h-1.351l-0.676 1.5h-0.498l2.026-4.498h0.189c-0.271-0.203-0.452-0.562-0.479-0.977h-3.228v-4.509h8zM6.516 10.658c-0.021-0.005-0.040-0.015-0.059-0.023l-1.066 2.366h1.125v-2.344zM7.014 10.622v2.38h1.108l-1.063-2.398c-0.014 0.007-0.029 0.011-0.045 0.018z"></path>
</symbol>
<symbol id="pd-camera" viewBox="0 0 16 16">
<title>camera</title>
<path d="M14 3.5l-7.502 0.009 0.002-1.478-4-0.031v1.5h-1c-0.552 0-1 0.448-1 1v8.5c0 0.552 0.448 1 1 1h12.5c0.552 0 1-0.448 1-1v-8.5c0-0.552-0.448-1-1-1zM3.5 3h2v1.5h-2v-1.5zM6 12.479c-1.933 0-3.5-1.567-3.5-3.5s1.567-3.5 3.5-3.5c1.933 0 3.5 1.567 3.5 3.5s-1.567 3.5-3.5 3.5zM12.75 6.761c-0.553 0-1-0.447-1-1s0.447-1 1-1c0.552 0 1 0.448 1 1s-0.448 1-1 1zM6 6.813c-1.242 0-2.25 1.008-2.25 2.25s1.008 2.25 2.25 2.25 2.25-1.008 2.25-2.25-1.008-2.25-2.25-2.25z"></path>
</symbol>
<symbol id="pd-tv" viewBox="0 0 16 16">
<title>tv</title>
<path d="M14.008 14.472h-1.024v0.528h-1.521v-0.528h-6.954v0.528h-1.522l0.001-0.528h-0.994c-0.549 0-0.994-0.445-0.994-0.993v-9.469c0-0.548 0.445-0.994 0.994-0.994h3.477c0 0 0.219-0.304 0.62-0.581l-1.276-1.277 0.351-0.351 1.377 1.377c0.262-0.112 0.566-0.192 0.915-0.192 0.372 0 0.686 0.091 0.955 0.215l1.399-1.399 0.351 0.351-1.307 1.308c0.364 0.268 0.557 0.551 0.557 0.551h4.595c0.549 0 0.994 0.445 0.994 0.994v9.469c0.001 0.549-0.444 0.993-0.993 0.993zM10.469 5.003c0-0.274-0.223-0.497-0.497-0.497h-6.954c-0.275 0-0.497 0.222-0.497 0.497v7.482c0 0.274 0.223 0.496 0.497 0.496h6.953c0.274 0 0.497-0.222 0.497-0.496v-7.482zM12.021 12.982h1.459v-0.496h-1.459v0.496zM12.021 11.989h1.459v-0.496h-1.459v0.496zM12.021 10.964h1.459v-0.496h-1.459v0.496zM12.021 9.97h1.459v-0.497h-1.459v0.497zM12.716 4.519c-0.411 0-0.745 0.333-0.745 0.745s0.334 0.745 0.745 0.745c0.412 0 0.745-0.333 0.745-0.745s-0.334-0.745-0.745-0.745zM12.716 6.5c-0.411 0-0.745 0.333-0.745 0.745s0.334 0.745 0.745 0.745c0.412 0 0.745-0.333 0.745-0.745s-0.334-0.745-0.745-0.745z"></path>
</symbol>
<symbol id="pd-ipod" viewBox="0 0 16 16">
<title>ipod</title>
<path d="M11 2h-6c-0.553 0-1 0.448-1 1v10c0 0.552 0.447 1 1 1h6c0.552 0 1-0.448 1-1v-10c0-0.552-0.448-1-1-1zM8 13c-0.967 0-1.75-0.784-1.75-1.75s0.783-1.75 1.75-1.75c0.966 0 1.75 0.783 1.75 1.75s-0.784 1.75-1.75 1.75zM11 8.5h-6l0.011-5.5h5.989v5.5zM8 10.25c-0.552 0-1 0.448-1 1s0.448 1 1 1 1-0.448 1-1-0.448-1-1-1z"></path>
</symbol>
<symbol id="pd-window" viewBox="0 0 16 16">
<title>window</title>
<path d="M14 2h-12c-0.552 0-1 0.448-1 1v10c0 0.552 0.448 1 1 1h12c0.552 0 1-0.448 1-1v-10c0-0.552-0.448-1-1-1zM5.781 2.75c0.276 0 0.5 0.224 0.5 0.5s-0.223 0.5-0.5 0.5c-0.277 0-0.5-0.224-0.5-0.5s0.224-0.5 0.5-0.5zM4.25 2.75c0.276 0 0.5 0.224 0.5 0.5s-0.224 0.5-0.5 0.5c-0.276 0-0.5-0.224-0.5-0.5s0.224-0.5 0.5-0.5zM2.749 2.75c0.276 0 0.5 0.224 0.5 0.5s-0.224 0.5-0.5 0.5c-0.276 0-0.499-0.224-0.499-0.5s0.224-0.5 0.499-0.5zM14 13h-12v-8.489h12v8.489zM14 3.51h-7v-0.5h7v0.5z"></path>
</symbol>
<symbol id="pd-tablet" viewBox="0 0 16 16">
<title>tablet</title>
<path d="M11.501 2h-7.5c-0.553 0-1 0.448-1 1v10c0 0.552 0.448 1 1 1h7.5c0.552 0 0.999-0.448 0.999-1v-10c0-0.552-0.447-1-0.999-1zM7.75 13.5c-0.276 0-0.5-0.223-0.5-0.5s0.223-0.5 0.5-0.5c0.277 0 0.501 0.223 0.501 0.5s-0.224 0.5-0.5 0.5zM11.495 11.969h-7.513v-8.956h7.513v8.956z"></path>
</symbol>
<symbol id="pd-phone" viewBox="0 0 16 16">
<title>phone</title>
<path d="M10.999 2h-6c-0.552 0-1 0.448-1 1v10c0 0.552 0.447 1 1 1h6c0.553 0 1.001-0.448 1.001-1v-10c0-0.552-0.448-1-1.001-1zM6.5 2.5h2.5l0.031 0.5h-2.531v-0.5zM7.989 13.25c-0.276 0-0.5-0.223-0.5-0.5s0.224-0.5 0.5-0.5c0.277 0 0.5 0.223 0.5 0.5s-0.224 0.5-0.5 0.5zM10.999 11.5h-6l0.011-8h5.989v8z"></path>
</symbol>
<symbol id="pd-files" viewBox="0 0 16 16">
<title>files</title>
<path d="M8.492 8.024h-4v0.453h4v-0.453zM8.492 9.524h-4v0.485h4v-0.485zM6.008 2.008v1.508h-1.516v1.508h-1.476v9.469h6.984v-1.515h1.476v-1.469h1.508v-9.5h-6.976zM9.515 14.008h-6.016v-8.531h6.016v8.531zM10.992 12.524h-0.992v-7.5h-5.024v-1.024h6.016v8.524zM12.5 11.024h-1.024v-7.508h-4.984v-1.024h6.008v8.531zM8.492 12.515h-4v0.485h4v-0.485zM8.492 11.008h-4v0.485h4v-0.485zM8.499 6.508h-4v0.5h4v-0.5z"></path>
</symbol>
<symbol id="pd-file3" viewBox="0 0 16 16">
<title>file3</title>
<path d="M5.5 7.5h0.5v-0.5h-0.5v0.5zM5.5 9h0.5v-0.5h-0.5v0.5zM5.5 6h0.5v-0.5h-0.5v0.5zM5.5 10.5h0.5v-0.5h-0.5v0.5zM5.5 12h0.5v-0.5h-0.5v0.5zM6.5 9h4v-0.5h-4v0.5zM6.5 6h4v-0.5h-4v0.5zM10.469 2h-6.969v12h9v-10l-2.031-2zM11.5 12.969h-7v-9.969h5v1.469h2v8.5zM6.5 10.5h4v-0.5h-4v0.5zM6.5 7.5h4v-0.5h-4v0.5zM6.5 12h4v-0.5h-4v0.5z"></path>
</symbol>
<symbol id="pd-file2" viewBox="0 0 16 16">
<title>file2</title>
<path d="M10.469 2.015h-6.969v11.969h5v-1h-4v-9.969h5v1.5h2v5.5h1v-6.031l-2.031-1.969zM9.5 12.515l3-0.031v-0.969h-3v1z"></path>
</symbol>
<symbol id="pd-file" viewBox="0 0 16 16">
<title>file</title>
<path d="M10.469 2.015h-6.969v11.969h5v-1h-4v-9.969h5v1.5h2v5.5h1v-6.031l-2.031-1.969zM11.5 11.015h-1v1h-1v1h1v0.969h1v-1h1v-0.969h-1v-1z"></path>
</symbol>
<symbol id="pd-calendar2" viewBox="0 0 16 16">
<title>calendar2</title>
<path d="M5.5 1.5h-1v2h1v-2zM11 4h-1v1h1v-1zM5.5 4h-1v1h1v-1zM11.469 3l0.031 2.5h-2v-2.5h-3.5v2.5h-2v-2.5h-1.5v12h10.5v-12h-1.531zM5.5 13.469h-1.5v-1.5h1.5v1.5zM5.5 11.469h-1.5v-1.5h1.5v1.5zM5.5 9.469h-1.5v-1.5h1.5v1.5zM7.5 13.469h-1.5v-1.5h1.5v1.5zM7.5 11.469h-1.5v-1.5h1.5v1.5zM7.5 9.469h-1.5v-1.5h1.5v1.5zM9.5 13.469h-1.5v-1.5h1.5v1.5zM9.5 11.469h-1.5v-1.5h1.5v1.5zM9.5 9.469h-1.5v-1.5h1.5v1.5zM11.5 13.469h-1.5v-1.5h1.5v1.5zM11.5 11.469h-1.5v-1.5h1.5v1.5zM11.5 9.469h-1.5v-1.5h1.5v1.5zM11 1.5h-1v2h1v-2z"></path>
</symbol>
<symbol id="pd-calendar" viewBox="0 0 16 16">
<title>calendar</title>
<path d="M14 15h-12c-0.552 0-1-0.448-1-1v-10.5c0-0.552 0.448-1 1-1h1v0.5c0 0.829 0.671 1.5 1.5 1.5s1.5-0.671 1.5-1.5v-0.5h4v0.5c0 0.829 0.672 1.5 1.5 1.5s1.5-0.671 1.5-1.5v-0.5h1c0.552 0 1 0.448 1 1v10.5c0 0.552-0.448 1-1 1zM14 6h-12v8h12v-8zM6.535 9.915c0.098-0.157 0.148-0.323 0.148-0.496 0-0.386-0.208-0.58-0.624-0.58-0.362 0-0.707 0.143-1.037 0.431v-0.815c0.365-0.236 0.777-0.354 1.237-0.354 0.429 0 0.765 0.108 1.006 0.323s0.362 0.508 0.362 0.874c0 0.49-0.294 0.997-0.882 1.521l-0.865 0.768v0.018h1.705v0.768h-2.765v-0.72l1.204-1.152c0.242-0.232 0.412-0.427 0.511-0.584zM9.918 11.583c0.132-0.101 0.198-0.243 0.198-0.425 0-0.188-0.082-0.332-0.245-0.434s-0.387-0.152-0.672-0.152h-0.378v-0.709h0.348c0.547 0 0.821-0.181 0.821-0.545 0-0.342-0.21-0.512-0.63-0.512-0.281 0-0.554 0.091-0.821 0.273v-0.756c0.295-0.149 0.639-0.223 1.031-0.223 0.429 0 0.764 0.097 1.004 0.29s0.359 0.444 0.359 0.753c0 0.549-0.278 0.893-0.835 1.031v0.014c0.297 0.037 0.531 0.145 0.703 0.323s0.258 0.398 0.258 0.658c0 0.393-0.143 0.703-0.431 0.931s-0.684 0.343-1.19 0.343c-0.434 0-0.786-0.070-1.058-0.211v-0.806c0.281 0.205 0.61 0.307 0.985 0.307 0.236 0.001 0.42-0.050 0.552-0.152zM11.485 4c-0.544 0-0.985-0.441-0.985-0.985v-1.031c0-0.544 0.441-0.985 0.985-0.985s0.985 0.441 0.985 0.985v1.031c0 0.544-0.441 0.985-0.985 0.985zM4.484 4c-0.544 0-0.985-0.441-0.985-0.985v-1.031c0-0.544 0.441-0.985 0.985-0.985s0.984 0.441 0.984 0.985v1.031c0 0.544-0.441 0.985-0.984 0.985z"></path>
</symbol>
<symbol id="pd-cabinet" viewBox="0 0 16 16">
<title>cabinet</title>
<path d="M2.5 15v-12l2.083-2h6.333l2.083 2v12h-10.5zM12.5 11v-7.5h-9.5v11h9.5v-3.5zM12 7h-8.5v-3h8.5v3zM9 5h-2.5v0.5h2.5v-0.5zM12 10.5h-8.5v-3h8.5v3zM9 8.5h-2.5v0.5h2.5v-0.5zM12 14h-8.5v-3h8.5v3zM9 12h-2.5v0.5h2.5v-0.5z"></path>
</symbol>
<symbol id="pd-link2" viewBox="0 0 16 16">
<title>link2</title>
<path d="M7.061 3.127l-3.75 6.495c-0.207 0.359 0.491 1.149 0.491 1.149l4.5-7.794c0 0-1.034-0.209-1.241 0.15zM8.25 7.567c0.358 0.207 0.818 0.084 1.024-0.274l2-3.464c0.207-0.359 0.084-0.817-0.274-1.025s-0.818-0.084-1.024 0.275l-2 3.464c-0.207 0.359-0.084 0.818 0.274 1.025zM7.75 8.433c-0.359-0.207-0.817-0.084-1.024 0.274l-2 3.465c-0.207 0.358-0.085 0.818 0.274 1.024s0.817 0.084 1.024-0.274l2-3.465c0.207-0.359 0.084-0.818-0.274-1.024zM12.198 5.228l-4.5 7.794c0 0 1.034 0.21 1.241-0.149l3.75-6.495c0.207-0.359-0.491-1.149-0.491-1.149z"></path>
</symbol>
<symbol id="pd-link" viewBox="0 0 16 16">
<title>link</title>
<path d="M12.665 4.92l-1.75 3.031c-0.277 0.478-0.887 0.642-1.366 0.366l-0.432-0.25 0.5-0.865c0.239 0.138 0.545 0.056 0.682-0.183l1.25-2.165c0.138-0.239 0.056-0.545-0.182-0.683l-1.732-1c-0.239-0.138-0.545-0.056-0.682 0.183l-1.25 2.165c-0.138 0.239-0.056 0.545 0.183 0.683l-0.5 0.865-0.433-0.25c-0.479-0.276-0.643-0.888-0.366-1.365l1.75-3.031c0.277-0.478 0.887-0.642 1.366-0.366l2.598 1.5c0.479 0.276 0.643 0.888 0.366 1.366zM6.75 10.165c-0.239-0.138-0.322-0.444-0.183-0.683l2-3.464c0.138-0.239 0.444-0.322 0.683-0.183s0.322 0.444 0.182 0.683l-2 3.464c-0.138 0.239-0.443 0.32-0.683 0.183zM6.384 8.8v0c-0.239-0.138-0.545-0.056-0.683 0.182l-1.25 2.165c-0.138 0.239-0.056 0.545 0.183 0.683l1.732 1c0.239 0.138 0.545 0.056 0.683-0.183l1.25-2.165c0.138-0.239 0.056-0.545-0.182-0.683v0l0.5-0.866 0.432 0.25c0.479 0.276 0.643 0.887 0.366 1.366l-1.75 3.031c-0.277 0.479-0.888 0.642-1.366 0.366l-2.598-1.5c-0.478-0.277-0.643-0.887-0.366-1.366l1.75-3.031c0.277-0.479 0.888-0.643 1.367-0.366l0.433 0.25-0.5 0.867z"></path>
</symbol>
<symbol id="pd-tag2" viewBox="0 0 16 16">
<title>tag2</title>
<path d="M14.454 9.788l-4.655 4.655c-0.396 0.396-1.037 0.396-1.433 0l-5.707-5.707-1.41-4.364 1.030-1.030 1.973 1.974c-0.053 0.38 0.062 0.779 0.354 1.071 0.495 0.495 1.296 0.495 1.79 0s0.494-1.296 0-1.79c-0.292-0.292-0.691-0.407-1.071-0.354l-1.974-1.974 1.007-1.008 4.387 1.387 5.707 5.707c0.396 0.396 0.396 1.037 0 1.433zM5.681 5.67c-0.099 0.099-0.259 0.099-0.358 0l-3.939-3.939c-0.099-0.099-0.099-0.26 0-0.358s0.26-0.099 0.358 0l3.939 3.939c0.099 0.099 0.099 0.26 0 0.359z"></path>
</symbol>
<symbol id="pd-tag" viewBox="0 0 16 16">
<title>tag</title>
<path d="M13.697 8.056l-6.112-6.071h-5.571l-0.013 5.564 6.039 6.165c0.397 0.397 1.036 0.402 1.427 0.011l4.242-4.242c0.39-0.39 0.386-1.030-0.011-1.427zM3.491 4.502c0-0.552 0.448-1 1-1s1 0.448 1 1c0 0.553-0.448 1-1 1s-1-0.447-1-1zM8.931 11.476l-3.889-3.889 0.354-0.354 3.889 3.889-0.354 0.354zM9.992 10.415l-3.889-3.889 0.354-0.354 3.888 3.889-0.354 0.354zM11.053 9.354l-3.889-3.889 0.354-0.354 3.889 3.889-0.354 0.354z"></path>
</symbol>
<symbol id="pd-connection" viewBox="0 0 20 16">
<title>connection</title>
<path d="M10 9c1.654 0 3.154 0.673 4.241 1.759l-1.414 1.414c-0.724-0.724-1.724-1.173-2.827-1.173s-2.103 0.449-2.827 1.173l-1.414-1.414c1.086-1.086 2.586-1.759 4.241-1.759zM2.929 7.929c1.889-1.889 4.4-2.929 7.071-2.929s5.182 1.040 7.071 2.929l-1.414 1.414c-1.511-1.511-3.52-2.343-5.657-2.343s-4.146 0.832-5.657 2.343l-1.414-1.414zM15.45 2.101c1.667 0.705 3.164 1.715 4.45 3v0l-1.414 1.414c-2.267-2.266-5.28-3.515-8.485-3.515s-6.219 1.248-8.485 3.515l-1.414-1.414c1.285-1.285 2.783-2.295 4.45-3 1.727-0.73 3.56-1.101 5.45-1.101s3.723 0.37 5.45 1.101zM9 14c0-0.552 0.448-1 1-1s1 0.448 1 1c0 0.552-0.448 1-1 1s-1-0.448-1-1z"></path>
</symbol>
<symbol id="pd-user" viewBox="0 0 16 16">
<title>user</title>
<path d="M9 11.041v-0.825c1.102-0.621 2-2.168 2-3.716 0-2.485 0-4.5-3-4.5s-3 2.015-3 4.5c0 1.548 0.898 3.095 2 3.716v0.825c-3.392 0.277-6 1.944-6 3.959h14c0-2.015-2.608-3.682-6-3.959z"></path>
</symbol>
<symbol id="pd-list-numbered" viewBox="0 0 16 16">
<title>list-numbered</title>
<path d="M6 13h10v2h-10zM6 7h10v2h-10zM6 1h10v2h-10zM3 0v4h-1v-3h-1v-1zM2 8.219v0.781h2v1h-3v-2.281l2-0.938v-0.781h-2v-1h3v2.281zM4 11v5h-3v-1h2v-1h-2v-1h2v-1h-2v-1z"></path>
</symbol>
<symbol id="pd-smile" viewBox="0 0 16 16">
<title>smile</title>
<path d="M8 16c4.418 0 8-3.582 8-8s-3.582-8-8-8-8 3.582-8 8 3.582 8 8 8zM8 1.5c3.59 0 6.5 2.91 6.5 6.5s-2.91 6.5-6.5 6.5-6.5-2.91-6.5-6.5 2.91-6.5 6.5-6.5zM4 5c0-0.552 0.448-1 1-1s1 0.448 1 1c0 0.552-0.448 1-1 1s-1-0.448-1-1zM10 5c0-0.552 0.448-1 1-1s1 0.448 1 1c0 0.552-0.448 1-1 1s-1-0.448-1-1zM11.002 9.801l1.286 0.772c-0.874 1.454-2.467 2.427-4.288 2.427s-3.413-0.973-4.288-2.427l1.286-0.772c0.612 1.018 1.727 1.699 3.002 1.699s2.389-0.681 3.002-1.699z"></path>
</symbol>
<symbol id="pd-sad" viewBox="0 0 16 16">
<title>sad</title>
<path d="M8 16c4.418 0 8-3.582 8-8s-3.582-8-8-8-8 3.582-8 8 3.582 8 8 8zM8 1.5c3.59 0 6.5 2.91 6.5 6.5s-2.91 6.5-6.5 6.5-6.5-2.91-6.5-6.5 2.91-6.5 6.5-6.5zM4 5c0-0.552 0.448-1 1-1s1 0.448 1 1c0 0.552-0.448 1-1 1s-1-0.448-1-1zM10 5c0-0.552 0.448-1 1-1s1 0.448 1 1c0 0.552-0.448 1-1 1s-1-0.448-1-1zM4.998 12.199l-1.286-0.772c0.874-1.454 2.467-2.427 4.288-2.427s3.413 0.973 4.288 2.427l-1.286 0.772c-0.612-1.018-1.727-1.699-3.002-1.699s-2.389 0.681-3.002 1.699z"></path>
</symbol>
<symbol id="pd-grin2" viewBox="0 0 16 16">
<title>grin2</title>
<path d="M8 0c-4.418 0-8 3.582-8 8s3.582 8 8 8c4.418 0 8-3.582 8-8s-3.582-8-8-8zM11 3.688c0.999 0 1.813 0.813 1.813 1.813 0 0.1-0.009 0.201-0.025 0.302-0.025 0.151-0.156 0.261-0.308 0.261s-0.283-0.11-0.308-0.261c-0.096-0.573-0.589-0.833-1.171-0.833s-1.074 0.26-1.171 0.833c-0.025 0.151-0.156 0.261-0.308 0.261-0 0 0 0-0 0-0.153 0-0.283-0.11-0.308-0.261-0.017-0.101-0.025-0.202-0.025-0.302 0-0.999 0.813-1.813 1.813-1.813zM5 3.688c0.999 0 1.813 0.813 1.813 1.813 0 0.1-0.009 0.201-0.025 0.302-0.025 0.151-0.156 0.261-0.308 0.261s-0.283-0.11-0.308-0.261c-0.096-0.573-0.589-0.833-1.171-0.833s-1.074 0.26-1.171 0.833c-0.025 0.151-0.156 0.261-0.308 0.261 0 0 0 0 0 0-0.153 0-0.283-0.11-0.308-0.261-0.017-0.101-0.025-0.202-0.025-0.302 0-0.999 0.813-1.813 1.813-1.813zM3 9h3v3.873c-1.72-0.447-3-2.018-3-3.873zM7 13v-4h2v4h-2zM10 12.873v-3.873h3c0 1.855-1.28 3.426-3 3.873z"></path>
</symbol>
<symbol id="pd-neutral" viewBox="0 0 16 16">
<title>neutral</title>
<path d="M8 16c4.418 0 8-3.582 8-8s-3.582-8-8-8-8 3.582-8 8 3.582 8 8 8zM8 1.5c3.59 0 6.5 2.91 6.5 6.5s-2.91 6.5-6.5 6.5-6.5-2.91-6.5-6.5 2.91-6.5 6.5-6.5zM4 5c0 0.552 0.448 1 1 1s1-0.448 1-1-0.448-1-1-1-1 0.448-1 1zM10 5c0 0.552 0.448 1 1 1s1-0.448 1-1-0.448-1-1-1-1 0.448-1 1zM6 11h4v1h-4v-1z"></path>
</symbol>
<symbol id="pd-crying" viewBox="0 0 16 16">
<title>crying</title>
<path d="M8 16c4.418 0 8-3.582 8-8s-3.582-8-8-8-8 3.582-8 8 3.582 8 8 8zM8 1.5c3.59 0 6.5 2.91 6.5 6.5s-2.91 6.5-6.5 6.5-6.5-2.91-6.5-6.5 2.91-6.5 6.5-6.5z"></path>
<path d="M12.5 6h-2c-0.276 0-0.5-0.224-0.5-0.5s0.224-0.5 0.5-0.5h2c0.276 0 0.5 0.224 0.5 0.5s-0.224 0.5-0.5 0.5z"></path>
<path d="M5.5 6h-2c-0.276 0-0.5-0.224-0.5-0.5s0.224-0.5 0.5-0.5h2c0.276 0 0.5 0.224 0.5 0.5s-0.224 0.5-0.5 0.5z"></path>
<path d="M9.5 13.375c-0.128 0-0.256-0.049-0.354-0.146-0.072-0.072-0.46-0.229-1.146-0.229s-1.075 0.157-1.146 0.229c-0.195 0.195-0.512 0.195-0.707 0s-0.195-0.512 0-0.707c0.471-0.471 1.453-0.521 1.854-0.521s1.383 0.051 1.854 0.521c0.195 0.195 0.195 0.512 0 0.707-0.098 0.098-0.226 0.146-0.354 0.146z"></path>
<path d="M11.5 9c-0.276 0-0.5-0.224-0.5-0.5v-1c0-0.276 0.224-0.5 0.5-0.5s0.5 0.224 0.5 0.5v1c0 0.276-0.224 0.5-0.5 0.5z"></path>
<path d="M11.5 12c-0.276 0-0.5-0.224-0.5-0.5v-1c0-0.276 0.224-0.5 0.5-0.5s0.5 0.224 0.5 0.5v1c0 0.276-0.224 0.5-0.5 0.5z"></path>
<path d="M4.5 9c-0.276 0-0.5-0.224-0.5-0.5v-1c0-0.276 0.224-0.5 0.5-0.5s0.5 0.224 0.5 0.5v1c0 0.276-0.224 0.5-0.5 0.5z"></path>
<path d="M4.5 12c-0.276 0-0.5-0.224-0.5-0.5v-1c0-0.276 0.224-0.5 0.5-0.5s0.5 0.224 0.5 0.5v1c0 0.276-0.224 0.5-0.5 0.5z"></path>
</symbol>
<symbol id="pd-monitor" viewBox="0 0 16 16">
<title>monitor</title>
<path d="M8.5 12.469h-1.5v0.781l-1.5 0.25v0.5h4.469v-0.469l-1.469-0.281v-0.781zM13.5 2h-11.5c-0.552 0-1 0.447-1 1v7c0 0.552 0.448 1 1 1h11.5c0.553 0 1-0.448 1-1v-7c0-0.553-0.447-1-1-1zM7.688 10.25c-0.276 0-0.5-0.224-0.5-0.5s0.224-0.5 0.5-0.5c0.277 0 0.5 0.223 0.5 0.5s-0.224 0.5-0.5 0.5zM13.5 8.5h-11.5v-5.5h11.5v5.5z"></path>
</symbol>
</defs>
</svg>
